<svg width="133" height="159" xmlns="http://www.w3.org/2000/svg"><g fill-rule="nonzero" fill="none"><g fill="#DFDFDF"><path d="M87.4 43.8c-2.3 0-4.5.3-6.6.9-4-11.2-14.7-19.3-27.3-19.3-15.4 0-28 12.1-28.9 27.3-.9-.1-1.9-.2-2.9-.2C9.7 52.5 0 62.2 0 74.2s9.7 21.7 21.7 21.7h65.7c14.4 0 26.1-11.7 26.1-26.1 0-14.3-11.7-26-26.1-26zM70.306 129.618s-7.9 3.9-9.2 4.7c-1.3.8-1.8 1.2-2.4 2.1-2 2.9-1.2 6.9 1.7 8.9s6.9 1.2 8.9-1.7c.7-1 .8-1.5 1.1-3.1.3-1.6.9-10.3.9-10.3.1-.6-.4-.9-1-.6zM71.706 102.118s-7.9 3.9-9.2 4.7c-1.3.8-1.8 1.2-2.4 2.1-2 2.9-1.2 6.9 1.7 8.9s6.9 1.2 8.9-1.7c.7-1 .8-1.5 1.1-3.1.3-1.6.9-10.3.9-10.3.1-.6-.4-.9-1-.6zM91.806 112.218s-10.1 5-11.8 6c-1.7 1-2.3 1.5-3.1 2.7-2.6 3.8-1.6 8.9 2.2 11.5 3.8 2.6 8.9 1.6 11.5-2.2.8-1.2 1-1.9 1.4-4 .4-2.1 1.1-13.2 1.1-13.2.1-.8-.5-1.2-1.3-.8zM58.582 122.283l-17.779.449 9.983-17.882c.168-.336.168-.729-.112-1.065-.224-.337-.673-.505-1.178-.505L36.205 103c-.561.056-1.178.28-1.346.785L23.08 131.589c-.168.336-.056.728.168 1.065.28.28.673.448 1.122.448l17.666-.112-8.805 24.553c-.168.56.168 1.12.785 1.345.169.056.393.112.561.112.449 0 .897-.168 1.178-.505l24.004-34.474c.28-.336.336-.84.056-1.177-.225-.393-.73-.617-1.234-.56z"/></g><path d="M132.504 39.383c-.5-.879-1.502-1.358-2.503-1.358-8.258 0-15.848-4.234-19.935-11.024a21.354 21.354 0 0 1 0-22.047c.5-.879.5-1.917-.084-2.796-.5-.879-1.501-1.358-2.502-1.358-5.005 0-10.01 1.278-14.347 3.675-8.342 4.633-13.346 12.7-14.264 21.248 4.755 2.716 8.425 5.991 10.26 11.104 1.752-.48 3.42-.48 5.255-.32 11.427.719 21.02 8.867 22.772 18.293 2.002-.64 2.92-1.438 4.754-2.396 4.338-2.397 8.008-5.912 10.51-10.145.584-.959.584-2.077.084-2.876z" fill="#F8D352"/></g></svg>