<?xml version="1.0" encoding="UTF-8"?>
<svg width="128px" height="128px" viewBox="0 0 128 128" version="1.1" xmlns="http://www.w3.org/2000/svg" xmlns:xlink="http://www.w3.org/1999/xlink">
    <!-- Generator: Sketch 63.1 (92452) - https://sketch.com -->
    <title>ots_dark_wx_102</title>
    <desc>Created with Sketch.</desc>
    <defs>
        <polygon id="path-1" points="45.5152004 0.811 0.8632 0.811 0.8632 47.3545 45.5152004 47.3545 45.5152004 0.811"></polygon>
    </defs>
    <g id="ots_dark_wx_102" stroke="none" stroke-width="1" fill="none" fill-rule="evenodd">
        <g id="Page-1" transform="translate(7.000000, 18.000000)">
            <path d="M113.0199,65.6897 C113.0199,67.5817 111.4869,69.1147 109.5949,69.1147 L39.9589,69.1147 C38.0669,69.1147 36.5339,67.5817 36.5339,65.6897 C36.5339,63.7977 38.0669,62.2647 39.9589,62.2647 L109.5949,62.2647 C111.4869,62.2647 113.0199,63.7977 113.0199,65.6897" id="Fill-1" fill="#D3D3D3"></path>
            <path d="M94.4533,77.2269 C94.4533,79.1189 92.9203,80.6519 91.0283,80.6519 L45.1343,80.6519 C43.2423,80.6519 41.7093,79.1189 41.7093,77.2269 C41.7093,75.3349 43.2423,73.8019 45.1343,73.8019 L91.0283,73.8019 C92.9203,73.8019 94.4533,75.3349 94.4533,77.2269" id="Fill-3" fill="#D3D3D3"></path>
            <path d="M85.3327,88.7641 C85.3327,90.6561 83.7997,92.1891 81.9077,92.1891 L42.1547,92.1891 C40.2637,92.1891 38.7297,90.6561 38.7297,88.7641 C38.7297,86.8721 40.2637,85.3391 42.1547,85.3391 L81.9077,85.3391 C83.7997,85.3391 85.3327,86.8721 85.3327,88.7641" id="Fill-5" fill="#D3D3D3"></path>
            <path d="M101.7433,54.1525 C101.7433,56.0445 100.2103,57.5775 98.3183,57.5775 L62.4753,57.5775 C60.5833,57.5775 59.0503,56.0445 59.0503,54.1525 C59.0503,52.2605 60.5833,50.7275 62.4753,50.7275 L98.3183,50.7275 C100.2103,50.7275 101.7433,52.2605 101.7433,54.1525" id="Fill-7" fill="#D3D3D3"></path>
            <g id="Group-11" transform="translate(53.000000, 0.189200)">
                <mask id="mask-2" fill="white">
                    <use xlink:href="#path-1"></use>
                </mask>
                <g id="Clip-10"></g>
                <path d="M45.1962,34.1325 C44.7712,33.3975 43.9872,32.9425 43.1362,32.9415 C36.3372,32.9305 30.0132,29.2855 26.6322,23.4305 C23.2472,17.5685 23.2532,10.2695 26.6432,4.3835 C27.0692,3.6455 27.0322,2.7365 26.6062,1.9995 C26.1802,1.2635 25.3582,0.8105 24.5072,0.8105 C20.3482,0.8105 16.2482,1.9035 12.6512,3.9765 C5.7432,7.9675 1.5942,14.9175 0.8632,22.3075 C4.7762,24.6815 7.8082,27.4945 9.3542,31.8775 C10.8142,31.4955 12.1572,31.4795 13.7342,31.5795 C23.1892,32.1755 31.1172,39.2585 32.5542,47.3545 C34.2182,46.8335 34.9632,46.1405 36.4862,45.2615 C40.0922,43.1755 43.1042,40.1495 45.1982,36.5115 C45.6212,35.7745 45.6212,34.8675 45.1962,34.1325" id="Fill-9" fill="#FED32A" mask="url(#mask-2)"></path>
            </g>
            <path d="M60.7024,41.1684 C59.1214,41.1684 57.5884,41.3744 56.1284,41.7564 C53.3924,33.9964 46.0004,28.4354 37.3044,28.4354 C26.6514,28.4354 17.9474,36.7824 17.3764,47.2934 C16.7244,47.2074 16.0654,47.1464 15.3894,47.1464 C7.0984,47.1464 0.3804,53.8664 0.3804,62.1574 C0.3804,70.4474 7.0984,77.1664 15.3894,77.1664 L60.7024,77.1664 C70.6424,77.1664 78.7014,69.1104 78.7014,59.1674 C78.7014,49.2254 70.6424,41.1684 60.7024,41.1684 L60.7024,41.1684 Z" id="Stroke-12" stroke="#D3D3D3" stroke-width="8.76"></path>
        </g>
    </g>
</svg>