<svg width="143" height="100" xmlns="http://www.w3.org/2000/svg"><g fill-rule="nonzero" fill="none"><path d="M110.7 78.7c-15.1 0-29.1-8.1-36.6-21.1-4.5-7.8-6.2-16.5-5.5-24.8a28.6 28.6 0 0 0-14.8-4.1c-15.4 0-28 12.1-28.9 27.3-.9-.1-1.9-.2-2.9-.2C10 55.8.3 65.5.3 77.5S10 99.2 22 99.2h65.7c12.5 0 23-8.8 25.5-20.6-.9.1-1.7.1-2.5.1z" fill="#DFDFDF"/><path d="M139.6 47.2c-9.9 0-19-5.3-23.9-13.8-4.9-8.5-4.9-19.1 0-27.6.6-1.1.6-2.4-.1-3.5-.6-1.1-1.8-1.7-3-1.7-6 0-12 1.6-17.2 4.6C78.9 14.8 73.3 36 82.8 52.5c6.1 10.7 17.6 17.3 29.9 17.3 6 0 12-1.6 17.2-4.6 5.2-3 9.6-7.4 12.6-12.7.6-1.1.6-2.4 0-3.4-.5-1.2-1.7-1.8-2.9-1.9z" fill="#F8D352"/></g></svg>