<svg width="140" height="67" xmlns="http://www.w3.org/2000/svg"><g fill="none" fill-rule="evenodd"><path d="M75.5 20.1c-1.8 0-3.6.2-5.3.7-3.2-9-11.8-15.5-21.9-15.5-12.4 0-22.5 9.7-23.2 22-.8-.1-1.5-.2-2.3-.2-9.6 0-17.5 7.8-17.5 17.5 0 9.6 7.8 17.5 17.5 17.5h52.7c11.6 0 21-9.4 21-21s-9.4-21-21-21z" stroke="#DFDFDF" stroke-width="8.76"/><path d="M139.6 47.5c0 2.4-1.9 4.3-4.3 4.3H47.2c-2.4 0-4.3-1.9-4.3-4.3s1.9-4.3 4.3-4.3h88.1c2.4-.1 4.3 1.9 4.3 4.3zM125.4 32.9c0 2.4-1.9 4.3-4.3 4.3H75.7c-2.4 0-4.3-1.9-4.3-4.3s1.9-4.3 4.3-4.3H121c2.4-.1 4.4 1.9 4.4 4.3z" fill="#DFDFDF" fill-rule="nonzero"/></g></svg>