<?xml version="1.0" encoding="UTF-8"?>
<svg width="128px" height="128px" viewBox="0 0 128 128" version="1.1" xmlns="http://www.w3.org/2000/svg" xmlns:xlink="http://www.w3.org/1999/xlink">
    <!-- Generator: Sketch 63.1 (92452) - https://sketch.com -->
    <title>ots_dark_wx_106</title>
    <desc>Created with Sketch.</desc>
    <defs>
        <polygon id="path-1" points="51.839 54.578 51.839 0.916 26.0983 0.916 0.3576 0.916 0.3576 54.578 51.839 54.578"></polygon>
        <polygon id="path-3" points="2.84216688e-14 27.4858 2.84216688e-14 120 110.839 120 110.839 0.916 2.84216688e-14 0.916 2.84216688e-14 27.4858 -0.0001 83.6708 90.3009 83.6708 90.3009 27.4858 2.84216688e-14 27.4858"></polygon>
    </defs>
    <g id="ots_dark_wx_106" stroke="none" stroke-width="1" fill="none" fill-rule="evenodd">
        <g id="Page-1" transform="translate(9.000000, 4.000000)">
            <path d="M27.8754,90.1289 C27.8754,90.1289 19.8154,94.0999 18.4964,94.9289 C17.1734,95.7609 16.6714,96.1439 16.0214,97.1009 C13.9814,100.1019 14.7624,104.1879 17.7634,106.2269 C20.7644,108.2669 24.8494,107.4879 26.8894,104.4879 C27.5544,103.5109 27.6644,102.9709 28.0034,101.3159 C28.3424,99.6649 28.9064,90.8249 28.9064,90.8249 C28.9674,90.1209 28.5024,89.8079 27.8754,90.1289" id="Fill-1" fill="#D3D3D3"></path>
            <path d="M68.392,90.1289 C68.392,90.1289 60.332,94.0999 59.015,94.9289 C57.693,95.7609 57.191,96.1439 56.541,97.1009 C54.501,100.1019 55.279,104.1879 58.28,106.2269 C61.281,108.2669 65.366,107.4879 67.406,104.4879 C68.071,103.5109 68.184,102.9709 68.523,101.3159 C68.861,99.6649 69.426,90.8249 69.426,90.8249 C69.486,90.1209 69.019,89.8079 68.392,90.1289" id="Fill-3" fill="#D3D3D3"></path>
            <g id="Group-7" transform="translate(31.000000, 102.084000)" fill="#D3D3D3">
                <path d="M13.8615,0.7642 C13.8615,0.7642 5.8015,4.7362 4.4825,5.5652 C3.1595,6.3962 2.6575,6.7802 2.0075,7.7372 C-0.0325,10.7372 0.7485,14.8232 3.7495,16.8632 C6.7505,18.9022 10.8355,18.1242 12.8755,15.1232 C13.5405,14.1462 13.6505,13.6072 13.9895,11.9532 C14.3285,10.3022 14.8925,1.4602 14.8925,1.4602 C14.9535,0.7562 14.4885,0.4422 13.8615,0.7642" id="Fill-5"></path>
            </g>
            <g id="Group-10" transform="translate(59.000000, 0.084000)">
                <mask id="mask-2" fill="white">
                    <use xlink:href="#path-1"></use>
                </mask>
                <g id="Clip-9"></g>
                <path d="M51.4716,39.334 C50.9816,38.486 50.0776,37.962 49.0966,37.961 C41.2576,37.948 33.9666,33.745 30.0686,26.995 C26.1656,20.236 26.1716,11.821 30.0816,5.035 C30.5716,4.184 30.5286,3.136 30.0386,2.287 C29.5466,1.438 28.5996,0.916 27.6176,0.916 C22.8226,0.916 18.0956,2.176 13.9486,4.565 C5.9846,9.167 1.2006,17.18 0.3576,25.701 C4.8696,28.438 8.3656,31.681 10.1476,36.734 C11.8306,36.294 13.3786,36.276 15.1976,36.39 C26.0986,37.078 35.2396,45.244 36.8966,54.578 C38.8136,53.978 39.6736,53.179 41.4296,52.166 C45.5866,49.761 49.0596,46.272 51.4736,42.077 C51.9616,41.227 51.9616,40.182 51.4716,39.334" id="Fill-8" fill="#FED329"></path>
            </g>
            <g id="Group-13" transform="translate(0.000000, 0.084000)">
                <mask id="mask-4" fill="white">
                    <use xlink:href="#path-3"></use>
                </mask>
                <g id="Clip-12"></g>
                <path d="M69.5489,42.1668 C67.7269,42.1668 65.9589,42.4038 64.2759,42.8448 C61.1209,33.8978 52.5979,27.4858 42.5719,27.4858 C30.2889,27.4858 20.2539,37.1098 19.5959,49.2278 C18.8439,49.1298 18.0839,49.0598 17.3049,49.0598 C7.7459,49.0598 -0.0001,56.8078 -0.0001,66.3658 C-0.0001,75.9238 7.7459,83.6708 17.3049,83.6708 L69.5489,83.6708 C81.0099,83.6708 90.3009,74.3828 90.3009,62.9188 C90.3009,51.4558 81.0099,42.1668 69.5489,42.1668" id="Fill-11" fill="#D3D3D3"></path>
            </g>
        </g>
    </g>
</svg>