<?xml version="1.0" encoding="UTF-8"?>
<svg width="128px" height="128px" viewBox="0 0 128 128" version="1.1" xmlns="http://www.w3.org/2000/svg" xmlns:xlink="http://www.w3.org/1999/xlink">
    <!-- Generator: Sketch 63.1 (92452) - https://sketch.com -->
    <title>ots_dark_wx_108</title>
    <desc>Created with Sketch.</desc>
    <defs>
        <polygon id="path-1" points="0.677293004 19 18.5879605 19 18.5879605 0.640465688 0.677293004 0.640465688"></polygon>
    </defs>
    <g id="ots_dark_wx_108" stroke="none" stroke-width="1" fill="none" fill-rule="evenodd">
        <g id="Page-1" transform="translate(19.000000, 12.000000)">
            <g id="Group-3" transform="translate(0.000000, 0.723000)" fill="#D3D3D3">
                <path d="M69.5489,14.9579 C67.7269,14.9579 65.9589,15.1949 64.2759,15.6359 C61.1209,6.6889 52.5979,0.2769 42.5719,0.2769 C30.2889,0.2769 20.2539,9.9009 19.5959,22.0189 C18.8439,21.9209 18.0839,21.8509 17.3049,21.8509 C7.7459,21.8509 -0.0001,29.5989 -0.0001,39.1569 C-0.0001,48.7149 7.7459,56.4619 17.3049,56.4619 L69.5489,56.4619 C81.0099,56.4619 90.3009,47.1739 90.3009,35.7099 C90.3009,24.2469 81.0099,14.9579 69.5489,14.9579" id="Fill-1"></path>
            </g>
            <path d="M72.6247,82.5514 L63.8357,79.1104 L70.6907,72.6204 C71.2887,72.0534 71.3147,71.1014 70.7477,70.5044 L67.9797,67.5834 C67.4147,66.9864 66.4627,66.9594 65.8647,67.5244 L59.6337,73.4274 L57.9927,64.9984 C57.8347,64.1914 57.0447,63.6584 56.2357,63.8164 L52.2827,64.5864 C51.4777,64.7444 50.9437,65.5334 51.1007,66.3424 L52.7427,74.7694 L44.7507,71.6384 C43.9837,71.3374 43.1107,71.7204 42.8097,72.4844 L41.3417,76.2344 C41.0407,76.9984 41.4237,77.8724 42.1907,78.1734 L50.9817,81.6144 L44.1267,88.1064 C43.5277,88.6734 43.5027,89.6254 44.0687,90.2224 L46.8377,93.1484 C47.4027,93.7454 48.3547,93.7704 48.9527,93.2054 L55.1847,87.3024 L56.8277,95.7284 C56.9857,96.5374 57.7767,97.0674 58.5827,96.9104 L62.5357,96.1404 C63.3427,95.9824 63.8757,95.1934 63.7177,94.3864 L62.0767,85.9604 L70.0667,89.0904 C70.8337,89.3894 71.7057,89.0094 72.0057,88.2424 L73.4747,84.4924 C73.7747,83.7254 73.3917,82.8494 72.6247,82.5514" id="Fill-4" fill="#D3D3D3"></path>
            <path d="M30.4618,72.9463 L25.5938,71.0403 L29.3908,67.4463 C29.7218,67.1323 29.7368,66.6043 29.4218,66.2733 L27.8888,64.6563 C27.5768,64.3253 27.0488,64.3103 26.7178,64.6233 L23.2668,67.8923 L22.3578,63.2243 C22.2698,62.7773 21.8328,62.4823 21.3848,62.5703 L19.1958,62.9963 C18.7498,63.0833 18.4538,63.5213 18.5408,63.9693 L19.4508,68.6363 L15.0238,66.9023 C14.5988,66.7353 14.1158,66.9473 13.9488,67.3713 L13.1358,69.4473 C12.9688,69.8713 13.1808,70.3543 13.6058,70.5213 L18.4748,72.4273 L14.6778,76.0233 C14.3458,76.3373 14.3328,76.8643 14.6458,77.1953 L16.1798,78.8153 C16.4928,79.1463 17.0198,79.1593 17.3508,78.8473 L20.8028,75.5773 L21.7128,80.2443 C21.7998,80.6923 22.2378,80.9863 22.6848,80.8993 L24.8738,80.4723 C25.3208,80.3853 25.6158,79.9483 25.5288,79.5013 L24.6198,74.8343 L29.0448,76.5683 C29.4698,76.7333 29.9528,76.5233 30.1188,76.0983 L30.9328,74.0213 C31.0988,73.5963 30.8868,73.1113 30.4618,72.9463" id="Fill-6" fill="#D3D3D3"></path>
            <g id="Group-10" transform="translate(21.000000, 84.723000)">
                <mask id="mask-2" fill="white">
                    <use xlink:href="#path-1"></use>
                </mask>
                <g id="Clip-9"></g>
                <path d="M18.0604,11.032 L13.1924,9.126 L16.9894,5.532 C17.3204,5.218 17.3354,4.69 17.0204,4.36 L15.4884,2.742 C15.1754,2.411 14.6474,2.396 14.3164,2.709 L10.8654,5.978 L9.9564,1.31 C9.8684,0.863 9.4314,0.568 8.9834,0.656 L6.7944,1.082 C6.3484,1.169 6.0524,1.607 6.1394,2.055 L7.0494,6.722 L2.6224,4.988 C2.1974,4.821 1.7144,5.033 1.5474,5.457 L0.7344,7.533 C0.5674,7.957 0.7794,8.44 1.2044,8.607 L6.0734,10.513 L2.2764,14.109 C1.9444,14.423 1.9314,14.95 2.2444,15.281 L3.7784,16.901 C4.0914,17.232 4.6184,17.245 4.9494,16.933 L8.4014,13.663 L9.3114,18.33 C9.3984,18.778 9.8364,19.072 10.2834,18.985 L12.4724,18.558 C12.9194,18.471 13.2144,18.034 13.1274,17.587 L12.2184,12.92 L16.6434,14.654 C17.0684,14.819 17.5514,14.609 17.7174,14.184 L18.5314,12.107 C18.6974,11.682 18.4854,11.197 18.0604,11.032" id="Fill-8" fill="#D3D3D3" mask="url(#mask-2)"></path>
            </g>
        </g>
    </g>
</svg>