<?xml version="1.0" encoding="UTF-8"?>
<svg width="128px" height="128px" viewBox="0 0 128 128" version="1.1" xmlns="http://www.w3.org/2000/svg" xmlns:xlink="http://www.w3.org/1999/xlink">
    <!-- Generator: Sketch 63.1 (92452) - https://sketch.com -->
    <title>ots_dark_wx_110</title>
    <desc>Created with Sketch.</desc>
    <g id="ots_dark_wx_110" stroke="none" stroke-width="1" fill="none" fill-rule="evenodd">
        <g id="Page-1" transform="translate(19.000000, 10.000000)" fill="#D3D3D3">
            <g id="Group-3" transform="translate(0.000000, 0.292000)">
                <path d="M69.5489,15.3885 C67.7269,15.3885 65.9589,15.6255 64.2759,16.0665 C61.1209,7.1195 52.5979,0.7075 42.5719,0.7075 C30.2889,0.7075 20.2539,10.3315 19.5959,22.4505 C18.8439,22.3515 18.0839,22.2815 17.3049,22.2815 C7.7459,22.2815 -0.0001,30.0295 -0.0001,39.5875 C-0.0001,49.1455 7.7459,56.8925 17.3049,56.8925 L69.5489,56.8925 C81.0099,56.8925 90.3009,47.6045 90.3009,36.1405 C90.3009,24.6775 81.0099,15.3885 69.5489,15.3885" id="Fill-1"></path>
            </g>
            <path d="M35.5497,65.1706 L27.8537,82.9056 C27.3597,84.0456 26.0347,84.5686 24.8947,84.0746 C23.7547,83.5796 23.2317,82.2546 23.7257,81.1146 L31.4217,63.3796 C31.9157,62.2396 33.2417,61.7166 34.3817,62.2106 C35.5217,62.7056 36.0437,64.0306 35.5497,65.1706" id="Fill-4"></path>
            <path d="M19.6833,66.2795 L8.1723,92.6085 C7.6783,93.7485 6.3523,94.2715 5.2123,93.7775 C4.0723,93.2825 3.5493,91.9565 4.0443,90.8175 L15.5553,64.4885 C16.0493,63.3485 17.3753,62.8255 18.5153,63.3195 C19.6553,63.8145 20.1773,65.1395 19.6833,66.2795" id="Fill-6"></path>
            <path d="M23.056,93.9635 L19.87,101.2665 C19.375,102.4065 18.05,102.9295 16.91,102.4355 C15.77,101.9405 15.247,100.6145 15.742,99.4755 L18.928,92.1725 C19.422,91.0325 20.748,90.5095 21.888,91.0035 C23.028,91.4985 23.55,92.8235 23.056,93.9635" id="Fill-8"></path>
            <path d="M61.1735,75.6626 L56.0365,73.6516 L60.0435,69.8586 C60.3925,69.5266 60.4075,68.9706 60.0765,68.6216 L58.4585,66.9146 C58.1285,66.5656 57.5725,66.5496 57.2225,66.8796 L53.5815,70.3296 L52.6215,65.4036 C52.5295,64.9326 52.0685,64.6206 51.5955,64.7136 L49.2845,65.1626 C48.8145,65.2556 48.5025,65.7166 48.5935,66.1896 L49.5535,71.1146 L44.8825,69.2846 C44.4345,69.1086 43.9245,69.3326 43.7485,69.7796 L42.8905,71.9706 C42.7145,72.4176 42.9385,72.9276 43.3865,73.1036 L48.5245,75.1146 L44.5185,78.9096 C44.1675,79.2406 44.1535,79.7976 44.4845,80.1466 L46.1025,81.8556 C46.4325,82.2046 46.9895,82.2196 47.3385,81.8886 L50.9815,78.4396 L51.9415,83.3636 C52.0335,83.8366 52.4955,84.1466 52.9665,84.0546 L55.2775,83.6046 C55.7485,83.5126 56.0605,83.0506 55.9675,82.5796 L55.0095,77.6546 L59.6785,79.4846 C60.1265,79.6586 60.6365,79.4366 60.8115,78.9886 L61.6705,76.7976 C61.8455,76.3486 61.6215,75.8366 61.1735,75.6626" id="Fill-10"></path>
            <g id="Group-14" transform="translate(32.000000, 87.292000)">
                <path d="M18.6407,11.5919 L13.5037,9.5809 L17.5107,5.7879 C17.8597,5.4559 17.8747,4.8999 17.5437,4.5509 L15.9257,2.8439 C15.5957,2.4949 15.0397,2.4789 14.6897,2.8089 L11.0487,6.2589 L10.0887,1.3329 C9.9967,0.8619 9.5357,0.5499 9.0627,0.6429 L6.7517,1.0919 C6.2817,1.1849 5.9697,1.6459 6.0607,2.1189 L7.0207,7.0439 L2.3497,5.2139 C1.9017,5.0379 1.3917,5.2619 1.2157,5.7089 L0.3577,7.8999 C0.1817,8.3469 0.4057,8.8569 0.8537,9.0329 L5.9917,11.0439 L1.9857,14.8389 C1.6347,15.1699 1.6207,15.7269 1.9517,16.0759 L3.5697,17.7849 C3.8997,18.1339 4.4567,18.1489 4.8057,17.8179 L8.4487,14.3689 L9.4087,19.2929 C9.5007,19.7659 9.9627,20.0759 10.4337,19.9839 L12.7447,19.5339 C13.2157,19.4419 13.5277,18.9799 13.4347,18.5089 L12.4767,13.5839 L17.1457,15.4139 C17.5937,15.5879 18.1037,15.3659 18.2787,14.9179 L19.1377,12.7269 C19.3127,12.2779 19.0887,11.7659 18.6407,11.5919" id="Fill-12"></path>
            </g>
            <path d="M75.7597,74.8648 L68.0637,92.5998 C67.5697,93.7398 66.2447,94.2628 65.1047,93.7688 C63.9647,93.2738 63.4417,91.9488 63.9357,90.8088 L71.6317,73.0738 C72.1257,71.9338 73.4517,71.4108 74.5917,71.9048 C75.7317,72.3998 76.2537,73.7248 75.7597,74.8648" id="Fill-15"></path>
        </g>
    </g>
</svg>