<svg width="140" height="149" xmlns="http://www.w3.org/2000/svg"><g fill-rule="nonzero" fill="none"><g fill="#DFDFDF"><path d="M87.4 51.8c-2.3 0-4.5.3-6.6.9-4-11.2-14.7-19.3-27.3-19.3-15.4 0-28 12.1-28.9 27.3-.9-.1-1.9-.2-2.9-.2C9.8 60.5 0 70.2 0 82.2s9.7 21.7 21.7 21.7h65.7c14.4 0 26.1-11.7 26.1-26.1 0-14.3-11.7-26-26.1-26zM75.5 133.8l-8.9-3.5 6.9-6.6c.6-.6.6-1.5.1-2.1l-2.8-3c-.6-.6-1.5-.6-2.1-.1l-6.3 6-1.7-8.5c-.2-.8-1-1.4-1.8-1.2l-4 .8c-.8.2-1.4 1-1.2 1.8l1.7 8.5-8.1-3.2c-.8-.3-1.7.1-2 .9l-1.5 3.8c-.3.8.1 1.7.9 2l8.9 3.5-6.9 6.6c-.6.6-.6 1.5-.1 2.1l2.8 3c.6.6 1.5.6 2.1.1l6.3-6 1.7 8.5c.2.8 1 1.4 1.8 1.2l4-.8c.8-.2 1.4-1 1.2-1.8l-1.7-8.5 8.1 3.2c.8.3 1.7-.1 2-.9l1.5-3.8c.3-.8-.1-1.7-.9-2z"/></g><path d="M138.9 48.3c-.6-1.1-1.8-1.7-3-1.7-9.9 0-19-5.3-23.9-13.8-4.9-8.5-4.9-19.1 0-27.6.6-1.1.6-2.4-.1-3.5-.6-1.1-1.8-1.7-3-1.7-6 0-12 1.6-17.2 4.6-10 5.8-16 15.9-17.1 26.6 5.7 3.4 10.1 7.5 12.3 13.9 2.1-.6 4.1-.6 6.3-.4 13.7.9 25.2 11.1 27.3 22.9 2.4-.8 3.5-1.8 5.7-3 5.2-3 9.6-7.4 12.6-12.7.7-1.2.7-2.6.1-3.6z" fill="#F8D352"/></g></svg>