<?xml version="1.0" encoding="UTF-8"?>
<svg width="128px" height="128px" viewBox="0 0 128 128" version="1.1" xmlns="http://www.w3.org/2000/svg" xmlns:xlink="http://www.w3.org/1999/xlink">
    <!-- Generator: Sketch 63.1 (92452) - https://sketch.com -->
    <title>ots_dark_wx_114</title>
    <desc>Created with Sketch.</desc>
    <defs>
        <polygon id="path-1" points="0.833668113 27 26.8503858 27 26.8503858 0.331476033 0.833668113 0.331476033 0.833668113 27"></polygon>
        <polygon id="path-3" points="51.839 54.1178 51.839 0.456 0.3576 0.456 0.3576 54.1178 51.839 54.1178"></polygon>
        <polygon id="path-5" points="2.84216688e-14 27.0257 2.84216688e-14 119 110.839 119 110.839 0.456 2.84216688e-14 0.456 2.84216688e-14 27.0257 -0.0001 83.2107 90.3009 83.2107 90.3009 27.0257 2.84216688e-14 27.0257"></polygon>
    </defs>
    <g id="ots_dark_wx_114" stroke="none" stroke-width="1" fill="none" fill-rule="evenodd">
        <g id="Page-1" transform="translate(9.000000, 4.000000)">
            <g id="Group-3" transform="translate(34.000000, 92.544000)">
                <mask id="mask-2" fill="white">
                    <use xlink:href="#path-1"></use>
                </mask>
                <g id="Clip-2"></g>
                <path d="M26.0843,15.4258 L19.0133,12.6578 L24.5283,7.4358 C25.0093,6.9798 25.0303,6.2138 24.5743,5.7338 L22.3473,3.3838 C21.8933,2.9038 21.1273,2.8818 20.6453,3.3358 L15.6333,8.0848 L14.3123,1.3038 C14.1853,0.6548 13.5503,0.2268 12.8993,0.3538 L9.7193,0.9728 C9.0713,1.0998 8.6413,1.7348 8.7673,2.3858 L10.0893,9.1648 L3.6593,6.6458 C3.0423,6.4038 2.3393,6.7118 2.0973,7.3268 L0.9163,10.3438 C0.6743,10.9588 0.9823,11.6608 1.5993,11.9028 L8.6723,14.6718 L3.1573,19.8948 C2.6753,20.3518 2.6553,21.1178 3.1103,21.5978 L5.3383,23.9508 C5.7923,24.4318 6.5583,24.4518 7.0403,23.9968 L12.0533,19.2478 L13.3753,26.0268 C13.5023,26.6778 14.1383,27.1048 14.7873,26.9778 L17.9673,26.3588 C18.6163,26.2318 19.0453,25.5968 18.9183,24.9478 L17.5983,18.1688 L24.0263,20.6868 C24.6433,20.9268 25.3453,20.6208 25.5863,20.0038 L26.7683,16.9878 C27.0093,16.3708 26.7013,15.6658 26.0843,15.4258" id="Fill-1" fill="#D3D3D3"></path>
            </g>
            <g id="Group-6" transform="translate(59.000000, 0.544000)">
                <mask id="mask-4" fill="white">
                    <use xlink:href="#path-3"></use>
                </mask>
                <g id="Clip-5"></g>
                <path d="M51.4716,38.8738 C50.9816,38.0258 50.0776,37.5018 49.0966,37.5008 C41.2576,37.4878 33.9666,33.2848 30.0686,26.5348 C26.1656,19.7758 26.1716,11.3608 30.0816,4.5748 C30.5716,3.7238 30.5286,2.6758 30.0386,1.8268 C29.5466,0.9778 28.5996,0.4558 27.6176,0.4558 C22.8226,0.4558 18.0956,1.7158 13.9486,4.1048 C5.9846,8.7068 1.2006,16.7198 0.3576,25.2408 C4.8696,27.9778 8.3656,31.2208 10.1476,36.2738 C11.8306,35.8338 13.3786,35.8158 15.1976,35.9298 C26.0986,36.6178 35.2396,44.7838 36.8966,54.1178 C38.8136,53.5178 39.6736,52.7188 41.4296,51.7058 C45.5866,49.3008 49.0596,45.8118 51.4736,41.6168 C51.9616,40.7668 51.9616,39.7218 51.4716,38.8738" id="Fill-4" fill="#FED329"></path>
            </g>
            <g id="Group-9" transform="translate(0.000000, 0.544000)">
                <mask id="mask-6" fill="white">
                    <use xlink:href="#path-5"></use>
                </mask>
                <g id="Clip-8"></g>
                <path d="M69.5489,41.7067 C67.7269,41.7067 65.9589,41.9437 64.2759,42.3847 C61.1209,33.4377 52.5979,27.0257 42.5719,27.0257 C30.2889,27.0257 20.2539,36.6497 19.5959,48.7687 C18.8439,48.6697 18.0839,48.5997 17.3049,48.5997 C7.7459,48.5997 -0.0001,56.3477 -0.0001,65.9057 C-0.0001,75.4637 7.7459,83.2107 17.3049,83.2107 L69.5489,83.2107 C81.0099,83.2107 90.3009,73.9227 90.3009,62.4587 C90.3009,50.9957 81.0099,41.7067 69.5489,41.7067" id="Fill-7" fill="#D3D3D3"></path>
            </g>
        </g>
    </g>
</svg>