<?xml version="1.0" encoding="UTF-8"?>
<svg width="128px" height="128px" viewBox="0 0 128 128" version="1.1" xmlns="http://www.w3.org/2000/svg" xmlns:xlink="http://www.w3.org/1999/xlink">
    <!-- Generator: Sketch 63.1 (92452) - https://sketch.com -->
    <title>ots_dark_wx_115</title>
    <desc>Created with Sketch.</desc>
    <defs>
        <polygon id="path-1" points="72.9228511 -0.0002 0.000103787723 -0.0002 0.000103787723 77.5957 72.9228511 77.5957 72.9228511 -0.0002"></polygon>
    </defs>
    <g id="ots_dark_wx_115" stroke="none" stroke-width="1" fill="none" fill-rule="evenodd">
        <g id="Page-1" transform="translate(28.000000, 25.000000)">
            <mask id="mask-2" fill="white">
                <use xlink:href="#path-1"></use>
            </mask>
            <g id="Clip-2"></g>
            <path d="M69.0481,52.3297 C57.9741,52.3127 47.6751,46.3757 42.1691,36.8397 C36.6561,27.2917 36.6651,15.4037 42.1871,5.8187 C42.8801,4.6177 42.8191,3.1357 42.1261,1.9367 C41.4321,0.7367 40.0941,-0.0003 38.7071,-0.0003 C31.9331,-0.0003 25.2561,1.7807 19.3981,5.1557 C0.8631,15.8647 -5.5079,39.6527 5.1931,58.1807 C12.1021,70.1567 24.9981,77.5957 38.8501,77.5957 L38.8511,77.5957 C45.6241,77.5957 52.3191,75.7987 58.2181,72.3957 C64.0901,68.9987 68.9961,64.0697 72.4061,58.1447 C73.0961,56.9437 73.0951,55.4677 72.4031,54.2697 C71.7111,53.0717 70.4341,52.3317 69.0481,52.3297" id="Fill-1" fill="#FED329" mask="url(#mask-2)"></path>
        </g>
    </g>
</svg>