<?xml version="1.0" encoding="UTF-8"?>
<svg width="128px" height="128px" viewBox="0 0 128 128" version="1.1" xmlns="http://www.w3.org/2000/svg" xmlns:xlink="http://www.w3.org/1999/xlink">
    <!-- Generator: Sketch 63.1 (92452) - https://sketch.com -->
    <title>ots_dark_wx_116</title>
    <desc>Created with Sketch.</desc>
    <defs>
        <polygon id="path-1" points="2.55851447e-20 0.419529688 2.55851447e-20 53.4969359 85.1794355 53.4969359 85.1794355 0.419529688 0 0.419529688"></polygon>
    </defs>
    <g id="ots_dark_wx_116" stroke="none" stroke-width="1" fill="none" fill-rule="evenodd">
        <g id="Page-1" transform="translate(16.000000, 4.000000)">
            <g id="Group-3" transform="translate(0.000000, 19.580258)">
                <mask id="mask-2" fill="white">
                    <use xlink:href="#path-1"></use>
                </mask>
                <g id="Clip-2"></g>
                <path d="M85.1794355,33.8930453 C85.1794355,23.0644906 76.4150897,14.2891547 65.604314,14.2891547 C63.8854262,14.2891547 62.2184542,14.5122484 60.629828,14.9291313 C57.6545757,6.47709219 49.6142206,0.419529688 40.1579776,0.419529688 C28.5712953,0.419529688 19.1075009,9.51249063 18.4845103,20.9592797 C17.7765664,20.8666391 17.0582393,20.8004672 16.3229215,20.8004672 C7.30654766,20.8004672 -0.000377570093,28.1200219 -0.000377570093,37.1496469 C-0.000377570093,46.1773813 7.30654766,53.4969359 16.3229215,53.4969359 L65.604314,53.4969359 C76.4150897,53.4969359 85.1794355,44.7216 85.1794355,33.8930453" id="Fill-1" fill="#D3D3D3" mask="url(#mask-2)"></path>
            </g>
            <path d="M44.8153047,94.1377164 L32.7132393,94.4553414 L40.5610336,79.6470211 C40.6884636,79.4069117 40.6610897,79.1337164 40.4874075,78.9144039 C40.316557,78.6960367 40.0211084,78.5618023 39.7030056,78.5561305 L26.4323607,78.3699039 C26.0396879,78.397318 25.647015,78.5778727 25.5129776,78.8992789 L15.4280804,103.14749 C15.3280243,103.384763 15.3761645,103.648505 15.5564542,103.853638 C15.7358,104.05688 16.0246411,104.176935 16.3304729,104.176935 L16.3361364,104.176935 L28.3220991,104.106982 L23.3938654,119.75474 C23.2796505,120.121521 23.5052486,120.505318 23.9281271,120.660349 C24.055557,120.70667 24.1886505,120.728412 24.3170243,120.728412 C24.6285196,120.728412 24.9286879,120.605521 25.1108654,120.383373 L45.6384075,95.349607 C45.8375757,95.1085523 45.8545664,94.7947086 45.6808841,94.5385289 C45.5081458,94.2814039 45.1673888,94.1140836 44.8153047,94.1377164" id="Fill-4" fill="#D3D3D3"></path>
            <path d="M54.448628,78.4627336 C54.448628,78.4627336 48.5207776,81.3875305 47.5504224,81.9982023 C46.5781794,82.6107648 46.2091047,82.892468 45.7305346,83.5976711 C44.2306374,85.8078117 44.8045439,88.8176867 47.0114411,90.3197883 C49.2183383,91.8218898 52.2228523,91.2480852 53.7236935,89.0388898 C54.2126467,88.3185617 54.2938243,87.9215305 54.5430206,86.7030227 C54.7922168,85.4864055 55.2075439,78.9760383 55.2075439,78.9760383 C55.2519084,78.4570617 54.9102075,78.2264055 54.448628,78.4627336" id="Fill-6" fill="#D3D3D3"></path>
            <path d="M68.8230047,86.4338922 C68.8230047,86.4338922 61.2074159,90.1915094 59.9604907,90.9761188 C58.7116776,91.7635641 58.2368832,92.1256188 57.6233318,93.0312281 C55.6958364,95.8709469 56.4330421,99.737275 59.2685935,101.666658 C62.1041449,103.596986 65.9638551,102.859642 67.8913505,100.020869 C68.5190607,99.0963531 68.6238364,98.5858844 68.9438271,97.0204469 C69.2638178,95.4578453 69.7971355,87.092775 69.7971355,87.092775 C69.854715,86.4263297 69.4157897,86.1295016 68.8230047,86.4338922" id="Fill-8" fill="#D3D3D3"></path>
            <path d="M52.800157,99.8535484 C52.800157,99.8535484 46.8723065,102.778345 45.9019514,103.389017 C44.9297084,104.00158 44.5606336,104.283283 44.0820636,104.988486 C42.5821664,107.198627 43.1560729,110.208502 45.3629701,111.710603 C47.5698673,113.212705 50.5743813,112.6389 52.0752224,110.429705 C52.5641757,109.709377 52.6453533,109.312345 52.8945495,108.093838 C53.1437458,106.87722 53.5590729,100.366853 53.5590729,100.366853 C53.6034374,99.8478766 53.2617364,99.6172203 52.800157,99.8535484" id="Fill-10" fill="#D3D3D3"></path>
            <path d="M99.9728206,31.4997977 C99.5716523,30.804993 98.831615,30.3748758 98.0283346,30.3739305 C91.6105869,30.363532 85.6412037,26.917868 82.4497925,21.3830633 C79.2546056,15.8416414 79.2602692,8.94180547 82.4601757,3.37769609 C82.8622879,2.68005547 82.8273626,1.82076641 82.4252505,1.12407109 C82.0231383,0.428321094 81.2472318,9.45312499e-05 80.4439514,9.45312499e-05 C76.5181664,9.45312499e-05 72.6480729,1.03332109 69.2527738,2.99295391 C62.9964374,6.61255547 58.5514935,16.0117977 58.1257832,20.3214773 C61.8193626,22.5656492 64.6813439,25.2248133 66.1406523,29.368118 C67.5187832,29.0070086 68.7864748,28.9918836 70.2750449,29.0864148 C79.1998579,29.6498211 86.6832972,36.3454695 88.0397178,43.9987195 C89.6104093,43.5062117 90.3136336,42.8511102 91.7512318,42.0201805 C95.1550262,40.0482586 97.998129,37.187743 99.9747084,33.7486961 C100.373989,33.0520008 100.373989,32.1946023 99.9728206,31.4997977" id="Fill-12" fill="#FED32A"></path>
        </g>
    </g>
</svg>