<svg width="81" height="81" xmlns="http://www.w3.org/2000/svg"><g transform="translate(8 7)" fill="#F8D352" fill-rule="nonzero"><circle cx="32.5" cy="33.5" r="16.5"/><path d="M63.241 31H56.76C55.24 31 54 32.098 54 33.439v.122C54 34.902 55.241 36 56.759 36h6.482C64.76 36 66 34.902 66 33.561v-.122C66 32.098 64.759 31 63.241 31zM49.75 5.383l-.124-.061c-1.174-.677-2.719-.246-3.398.923l-2.905 4.986c-.68 1.17-.247 2.709.927 3.386l.124.061c1.174.677 2.719.246 3.398-.923l2.905-4.986c.68-1.17.247-2.709-.927-3.386zM21.773 53.383l-.124-.061c-1.178-.677-2.728-.246-3.41.923l-2.915 4.986c-.682 1.17-.248 2.709.93 3.386l.124.061c1.179.677 2.729.246 3.41-.923l2.915-4.986c.62-1.17.248-2.709-.93-3.386zM47.772 54.245c-.68-1.17-2.224-1.6-3.398-.923l-.124.061c-1.174.677-1.607 2.216-.927 3.386l2.905 4.986c.68 1.17 2.224 1.6 3.398.923l.124-.061c1.174-.677 1.607-2.216.927-3.386l-2.905-4.986zM18.228 13.755c.68 1.17 2.224 1.6 3.398.923l.124-.061c1.174-.677 1.607-2.216.927-3.386l-2.905-4.986c-.68-1.17-2.224-1.6-3.398-.923l-.124.061c-1.174.677-1.607 2.216-.927 3.386l2.905 4.986zM12.803 19.228l-5.04-2.905c-1.168-.68-2.704-.247-3.38.927l-.062.124c-.676 1.174-.246 2.719.922 3.398l4.978 2.905c1.168.68 2.705.247 3.38-.927l.062-.124c.676-1.236.307-2.719-.86-3.398zM60.755 47.228l-4.986-2.905c-1.17-.68-2.709-.247-3.386.927l-.061.124c-.677 1.174-.246 2.719.923 3.398l4.986 2.905c1.17.68 2.709.247 3.386-.927l.061-.124c.677-1.236.246-2.719-.923-3.398zM13.617 45.25c-.677-1.174-2.216-1.607-3.386-.927l-4.986 2.905c-1.17.68-1.6 2.224-.923 3.398l.061.124c.677 1.174 2.216 1.607 3.386.927l4.986-2.905c1.17-.68 1.6-2.224.923-3.398l-.061-.124zM52.383 22.75c.677 1.174 2.216 1.607 3.386.927l4.986-2.905c1.17-.68 1.6-2.224.923-3.398l-.061-.124c-.677-1.174-2.216-1.607-3.386-.927l-4.986 2.905c-1.17.68-1.6 2.224-.923 3.398l.061.124zM32.439 12h.122C33.902 12 35 10.759 35 9.241V2.76C35 1.24 33.902 0 32.561 0h-.122C31.098 0 30 1.241 30 2.759V9.24C30 10.76 31.098 12 32.439 12zM32.561 55h-.122C31.098 55 30 56.241 30 57.759v6.482C30 65.76 31.098 67 32.439 67h.122C33.902 67 35 65.759 35 64.241V57.76C35 56.24 33.902 55 32.561 55zM12 33.561v-.122C12 32.098 10.759 31 9.241 31H2.76C1.24 31 0 32.098 0 33.439v.122C0 34.902 1.241 36 2.759 36H9.24C10.76 36 12 34.902 12 33.561z"/></g></svg>