<svg width="144" height="109" xmlns="http://www.w3.org/2000/svg"><g fill-rule="nonzero" fill="none"><g transform="translate(59)" fill="#F8D352"><circle cx="30.2" cy="54.6" r="26.3"/><path d="M80 50.1H69.9c-2.4 0-4.3 1.9-4.3 4.3v.2c0 2.4 1.9 4.3 4.3 4.3H80c2.4 0 4.3-1.9 4.3-4.3v-.2c0-2.3-1.9-4.3-4.3-4.3zM57.4 7.7l-.2-.1c-2.1-1.2-4.7-.5-5.9 1.6L46.2 18c-1.2 2.1-.5 4.7 1.6 5.9l.2.1c2.1 1.2 4.7.5 5.9-1.6l5.1-8.8c1.1-2 .4-4.7-1.6-5.9zM12.6 85.2l-.2-.1c-2.1-1.2-4.7-.5-5.9 1.6l-5.1 8.8c-1.2 2.1-.5 4.7 1.6 5.9l.2.1c2.1 1.2 4.7.5 5.9-1.6l5.1-8.8c1.2-2 .5-4.7-1.6-5.9zM53.9 86.7c-1.2-2.1-3.8-2.8-5.9-1.6l-.2.1c-2.1 1.2-2.8 3.8-1.6 5.9l5.1 8.8c1.2 2.1 3.8 2.8 5.9 1.6l.2-.1c2.1-1.2 2.8-3.8 1.6-5.9l-5.1-8.8zM75.6 75.6l-8.8-5.1c-2.1-1.2-4.7-.5-5.9 1.6l-.1.2c-1.2 2.1-.5 4.7 1.6 5.9l8.8 5.1c2.1 1.2 4.7.5 5.9-1.6l.1-.2c1.1-2 .4-4.7-1.6-5.9zM60.9 37c1.2 2.1 3.8 2.8 5.9 1.6l8.8-5.1c2.1-1.2 2.8-3.8 1.6-5.9l-.1-.2c-1.2-2.1-3.8-2.8-5.9-1.6l-8.8 5.1c-2.1 1.2-2.8 3.8-1.6 5.9l.1.2zM30.1 19.2h.2c2.4 0 4.3-1.9 4.3-4.3V4.8c0-2.4-1.9-4.3-4.3-4.3h-.2c-2.4 0-4.3 1.9-4.3 4.3v10.1c0 2.4 1.9 4.3 4.3 4.3zM30.3 89.9h-.2c-2.4 0-4.3 1.9-4.3 4.3v10.1c0 2.4 1.9 4.3 4.3 4.3h.2c2.4 0 4.3-1.9 4.3-4.3V94.2c0-2.3-1.9-4.3-4.3-4.3z"/></g><path d="M54.1 54.6c0-15.1 9.5-27.9 22.7-32.9-5.3-6.9-13.6-11.4-23-11.4-15.4 0-28 12.1-28.9 27.3-.9-.1-1.9-.2-2.9-.2C10 37.4.3 47.1.3 59.1S10 80.8 22 80.8h43.8c-7.1-6.3-11.7-15.7-11.7-26.2z" fill="#DFDFDF"/></g></svg>