<svg width="143" height="72" xmlns="http://www.w3.org/2000/svg"><g fill="#DFDFDF" fill-rule="nonzero"><path d="M126.5 50.6H77.2c-7.3 0-13.2-5.9-13.2-13.2 0-7.3 5.9-13.2 13.2-13.2.5 0 1.1 0 1.7.1l3.4.4.2-3.4C83 11.5 91.2 3.8 101 3.8c7.9 0 14.9 5 17.5 12.4l1 2.7 2.8-.7c1.4-.4 2.8-.5 4.2-.5 9.1 0 16.4 7.4 16.4 16.4 0 9.1-7.4 16.5-16.4 16.5z"/><path d="M57.8 37.4c0-10.5 8.4-19.1 18.8-19.4.3-1.5.7-2.9 1.2-4.3C72.6 5.9 63.8.8 53.8.8c-15.4 0-28 12.1-28.9 27.3-.9-.1-1.9-.2-2.9-.2C10 27.9.3 37.6.3 49.6S10 71.3 22 71.3h65.7c10.2 0 19.1-5.9 23.3-14.5H77.2c-10.7 0-19.4-8.7-19.4-19.4z"/></g></svg>