<svg width="142" height="109" xmlns="http://www.w3.org/2000/svg"><g fill-rule="nonzero" fill="none"><g fill="#F8D352"><path d="M137 50.1h-10.1c-2.4 0-4.3 1.9-4.3 4.3v.2c0 2.4 1.9 4.3 4.3 4.3H137c2.4 0 4.3-1.9 4.3-4.3v-.2c0-2.3-1.9-4.3-4.3-4.3zM114.4 7.7l-.2-.1c-2.1-1.2-4.7-.5-5.9 1.6l-5.1 8.8c-1.2 2.1-.5 4.7 1.6 5.9l.2.1c2.1 1.2 4.7.5 5.9-1.6l5.1-8.8c1.1-2 .4-4.7-1.6-5.9zM69.6 85.2l-.2-.1c-2.1-1.2-4.7-.5-5.9 1.6l-5.1 8.8c-1.2 2.1-.5 4.7 1.6 5.9l.2.1c2.1 1.2 4.7.5 5.9-1.6l5.1-8.8c1.2-2 .5-4.7-1.6-5.9zM110.9 86.7c-1.2-2.1-3.8-2.8-5.9-1.6l-.2.1c-2.1 1.2-2.8 3.8-1.6 5.9l5.1 8.8c1.2 2.1 3.8 2.8 5.9 1.6l.2-.1c2.1-1.2 2.8-3.8 1.6-5.9l-5.1-8.8zM132.6 75.6l-8.8-5.1c-2.1-1.2-4.7-.5-5.9 1.6l-.1.2c-1.2 2.1-.5 4.7 1.6 5.9l8.8 5.1c2.1 1.2 4.7.5 5.9-1.6l.1-.2c1.1-2 .4-4.7-1.6-5.9zM117.9 37c1.2 2.1 3.8 2.8 5.9 1.6l8.8-5.1c2.1-1.2 2.8-3.8 1.6-5.9l-.1-.2c-1.2-2.1-3.8-2.8-5.9-1.6l-8.8 5.1c-2.1 1.2-2.8 3.8-1.6 5.9l.1.2zM87.1 19.2h.2c2.4 0 4.3-1.9 4.3-4.3V4.8c0-2.4-1.9-4.3-4.3-4.3h-.2c-2.4 0-4.3 1.9-4.3 4.3v10.1c0 2.4 1.9 4.3 4.3 4.3zM87.3 89.9h-.2c-2.4 0-4.3 1.9-4.3 4.3v10.1c0 2.4 1.9 4.3 4.3 4.3h.2c2.4 0 4.3-1.9 4.3-4.3V94.2c0-2.3-1.9-4.3-4.3-4.3z"/></g><path d="M87.4 28.4c-2.3 0-4.5.3-6.6.9C76.8 18.1 66.1 10 53.5 10c-15.4 0-28 12.1-28.9 27.3-.9-.1-1.9-.2-2.9-.2C9.7 37.1 0 46.8 0 58.8s9.7 21.7 21.7 21.7h65.7c14.4 0 26.1-11.7 26.1-26.1 0-14.3-11.7-26-26.1-26z" fill="#DFDFDF"/></g></svg>