<?xml version="1.0" encoding="UTF-8"?>
<svg width="128px" height="128px" viewBox="0 0 128 128" version="1.1" xmlns="http://www.w3.org/2000/svg" xmlns:xlink="http://www.w3.org/1999/xlink">
    <!-- Generator: Sketch 63.1 (92452) - https://sketch.com -->
    <title>ots_dark_wx_69</title>
    <desc>Created with Sketch.</desc>
    <defs>
        <polygon id="path-1" points="88.1188 57 0 57 0 0.816 88.1188 0.816 88.1188 57"></polygon>
    </defs>
    <g id="ots_dark_wx_69" stroke="none" stroke-width="1" fill="none" fill-rule="evenodd">
        <g id="Page-1" transform="translate(7.000000, 35.000000)">
            <g id="Group-3" transform="translate(0.000000, 0.184300)">
                <mask id="mask-2" fill="white">
                    <use xlink:href="#path-1"></use>
                </mask>
                <g id="Clip-2"></g>
                <path d="M61.2188,45.4492 C52.6848,45.4492 45.7418,38.5062 45.7418,29.9712 C45.7418,21.5992 52.4228,14.7582 60.7328,14.5012 C58.2598,6.1292 50.5538,0.8152 42.5728,0.8152 C30.2888,0.8152 20.2558,10.4392 19.5958,22.5582 C18.8458,22.4592 18.0838,22.3892 17.3048,22.3892 C7.7458,22.3892 -0.0002,30.1372 -0.0002,39.6952 C-0.0002,49.2532 7.7458,57.0002 17.3048,57.0002 L69.5488,57.0002 C77.6998,57.0002 84.7278,52.2882 88.1188,45.4492 L61.2188,45.4492 Z" id="Fill-1" fill="#D3D3D3" mask="url(#mask-2)"></path>
            </g>
            <path d="M61.2188,19.6775 C55.4428,19.6775 50.7418,24.3775 50.7418,30.1565 C50.7418,35.9335 55.4428,40.6335 61.2188,40.6335 L100.3978,40.6335 C107.5998,40.6335 113.4588,34.7745 113.4588,27.5715 C113.4588,20.3675 107.5998,14.5085 100.3978,14.5085 C99.2778,14.5085 98.1598,14.6525 97.0738,14.9365 L94.8498,15.5175 L94.0848,13.3485 C92.0078,7.4575 86.4148,3.4995 80.1668,3.4995 C72.3308,3.4995 65.8588,9.6225 65.4328,17.4405 L65.2858,20.1365 L62.6098,19.7825 C62.0648,19.7105 61.6218,19.6775 61.2188,19.6775" id="Fill-4" fill="#D3D3D3"></path>
        </g>
    </g>
</svg>