<svg width="100" height="100" xmlns="http://www.w3.org/2000/svg"><path d="M92 43.132a4.41 4.41 0 0 1-4.426 4.398H13.426C11.019 47.53 9 45.6 9 43.132a4.41 4.41 0 0 1 4.426-4.397h74.148A4.41 4.41 0 0 1 92 43.132zM80.587 57.868a4.41 4.41 0 0 1-4.426 4.397H17.152c-2.406 0-4.425-1.929-4.425-4.397a4.41 4.41 0 0 1 4.425-4.398h59.009a4.41 4.41 0 0 1 4.426 4.398zm7.53 14.735A4.41 4.41 0 0 1 83.693 77H32.603c-2.407 0-4.425-1.929-4.425-4.397a4.41 4.41 0 0 1 4.425-4.398h51.09a4.41 4.41 0 0 1 4.425 4.398zm-2.484-44.206a4.41 4.41 0 0 1-4.425 4.398H31.283c-2.406 0-4.425-1.929-4.425-4.398A4.41 4.41 0 0 1 31.283 24h49.925c2.407 0 4.425 2.006 4.425 4.397z" fill="#DFDFDF" fill-rule="nonzero"/></svg>