<?xml version="1.0" encoding="UTF-8"?>
<svg width="128px" height="128px" viewBox="0 0 128 128" version="1.1" xmlns="http://www.w3.org/2000/svg" xmlns:xlink="http://www.w3.org/1999/xlink">
    <!-- Generator: Sketch 63.1 (92452) - https://sketch.com -->
    <title>ots_dark_wx_73</title>
    <desc>Created with Sketch.</desc>
    <defs>
        <polygon id="path-1" points="0 0.7485 0 8.9365 17.3906 8.9365 17.3906 0.7485 2.71050543e-20 0.7485"></polygon>
        <polygon id="path-3" points="18.314 8.9361 18.314 0.7481 0.9234 0.7481 0.9234 8.9361 18.314 8.9361"></polygon>
        <polygon id="path-5" points="54.2524 1 46.0634 1 46.0634 18.3902 54.2524 18.3902 54.2524 1"></polygon>
        <polygon id="path-7" points="46.0629 101.315 54.2519 101.315 54.2519 83.9244 46.0629 83.9244"></polygon>
    </defs>
    <g id="ots_dark_wx_73" stroke="none" stroke-width="1" fill="none" fill-rule="evenodd">
        <g id="Page-1" transform="translate(14.000000, 13.000000)">
            <path d="M24.4531,51.1578 C24.4531,65.3548 35.9621,76.8628 50.1581,76.8628 C64.3551,76.8628 75.8621,65.3548 75.8621,51.1578 C75.8621,36.9608 64.3551,25.4528 50.1581,25.4528 C35.9621,25.4528 24.4531,36.9608 24.4531,51.1578" id="Fill-1" fill="#FED329"></path>
            <g id="Group-5" transform="translate(0.000000, 46.315000)">
                <mask id="mask-2" fill="white">
                    <use xlink:href="#path-1"></use>
                </mask>
                <g id="Clip-4"></g>
                <path d="M17.3906,4.9365 L17.3906,4.7485 C17.3906,2.5475 15.5906,0.7485 13.3906,0.7485 L3.9996,0.7485 C1.7996,0.7485 -0.0004,2.5475 -0.0004,4.7485 L-0.0004,4.9365 C-0.0004,7.1365 1.7996,8.9365 3.9996,8.9365 L13.3906,8.9365 C15.5906,8.9365 17.3906,7.1365 17.3906,4.9365" id="Fill-3" fill="#FED329" mask="url(#mask-2)"></path>
            </g>
            <g id="Group-8" transform="translate(82.000000, 46.315000)">
                <mask id="mask-4" fill="white">
                    <use xlink:href="#path-3"></use>
                </mask>
                <g id="Clip-7"></g>
                <path d="M14.3144,0.7481 L4.9234,0.7481 C2.7244,0.7481 0.9234,2.5481 0.9234,4.7481 L0.9234,4.9361 C0.9234,7.1371 2.7244,8.9361 4.9234,8.9361 L14.3144,8.9361 C16.5154,8.9361 18.3144,7.1371 18.3144,4.9361 L18.3144,4.7481 C18.3144,2.5481 16.5154,0.7481 14.3144,0.7481" id="Fill-6" fill="#FED329" mask="url(#mask-4)"></path>
            </g>
            <path d="M75.3183,7.7672 L75.1543,7.6722 C73.2493,6.5732 70.7913,7.2312 69.6903,9.1362 L64.9953,17.2692 C63.8943,19.1742 64.5533,21.6332 66.4593,22.7332 L66.6233,22.8282 C68.5273,23.9272 70.9863,23.2692 72.0863,21.3642 L76.7813,13.2312 C77.8823,11.3262 77.2223,8.8672 75.3183,7.7672" id="Fill-9" fill="#FED329"></path>
            <path d="M33.8554,79.5816 L33.6924,79.4866 C31.7874,78.3876 29.3284,79.0456 28.2284,80.9506 L23.5334,89.0836 C22.4334,90.9886 23.0914,93.4476 24.9974,94.5476 L25.1604,94.6426 C27.0664,95.7416 29.5244,95.0836 30.6254,93.1786 L35.3204,85.0456 C36.4194,83.1406 35.7614,80.6816 33.8554,79.5816" id="Fill-11" fill="#FED329"></path>
            <path d="M72.0859,80.9508 C70.9859,79.0458 68.5269,78.3868 66.6229,79.4868 L66.4589,79.5818 C64.5539,80.6808 63.8949,83.1398 64.9949,85.0458 L69.6909,93.1778 C70.7909,95.0838 73.2489,95.7418 75.1539,94.6418 L75.3179,94.5478 C77.2229,93.4478 77.8819,90.9888 76.7809,89.0838 L72.0859,80.9508 Z" id="Fill-13" fill="#FED329"></path>
            <path d="M28.2285,21.3638 C29.3285,23.2688 31.7875,23.9268 33.6925,22.8278 L33.8555,22.7328 C35.7615,21.6338 36.4195,19.1748 35.3205,17.2688 L30.6245,9.1358 C29.5245,7.2308 27.0665,6.5728 25.1605,7.6728 L24.9965,7.7668 C23.0915,8.8668 22.4335,11.3258 23.5335,13.2308 L28.2285,21.3638 Z" id="Fill-15" fill="#FED329"></path>
            <path d="M20.3632,29.2281 L12.2302,24.5331 C10.3262,23.4331 7.8672,24.0911 6.7672,25.9971 L6.6732,26.1611 C5.5722,28.0661 6.2312,30.5251 8.1362,31.6241 L16.2692,36.3201 C18.1752,37.4191 20.6332,36.7611 21.7332,34.8561 L21.8282,34.6921 C22.9272,32.7871 22.2682,30.3281 20.3632,29.2281" id="Fill-17" fill="#FED329"></path>
            <path d="M92.1777,70.69 L84.0447,65.995 C82.1407,64.895 79.6817,65.553 78.5817,67.459 L78.4877,67.623 C77.3867,69.528 78.0457,71.987 79.9507,73.086 L88.0837,77.782 C89.9887,78.881 92.4477,78.223 93.5477,76.318 L93.6427,76.154 C94.7417,74.249 94.0827,71.79 92.1777,70.69" id="Fill-19" fill="#FED329"></path>
            <path d="M21.7334,67.4586 C20.6324,65.5536 18.1744,64.8946 16.2694,65.9946 L8.1364,70.6896 C6.2314,71.7896 5.5724,74.2486 6.6724,76.1536 L6.7674,76.3176 C7.8674,78.2236 10.3264,78.8816 12.2304,77.7816 L20.3634,73.0866 C22.2684,71.9866 22.9274,69.5276 21.8284,67.6226 L21.7334,67.4586 Z" id="Fill-21" fill="#FED329"></path>
            <path d="M78.582,34.856 C79.682,36.761 82.141,37.419 84.045,36.32 L92.178,31.625 C94.083,30.525 94.742,28.066 93.643,26.161 L93.548,25.997 C92.447,24.091 89.989,23.433 88.084,24.533 L79.951,29.228 C78.046,30.328 77.387,32.787 78.487,34.692 L78.582,34.856 Z" id="Fill-23" fill="#FED329"></path>
            <mask id="mask-6" fill="white">
                <use xlink:href="#path-5"></use>
            </mask>
            <g id="Clip-26"></g>
            <path d="M50.0634,18.3902 L50.2524,18.3902 C52.4524,18.3902 54.2524,16.5902 54.2524,14.3902 L54.2524,4.9992 C54.2524,2.7992 52.4524,0.9992 50.2524,0.9992 L50.0634,0.9992 C47.8634,0.9992 46.0634,2.7992 46.0634,4.9992 L46.0634,14.3902 C46.0634,16.5902 47.8634,18.3902 50.0634,18.3902" id="Fill-25" fill="#FED329"></path>
            <mask id="mask-8" fill="white">
                <use xlink:href="#path-7"></use>
            </mask>
            <g id="Clip-29"></g>
            <path d="M50.2519,83.9244 L50.0629,83.9244 C47.8629,83.9244 46.0629,85.7244 46.0629,87.9244 L46.0629,97.3154 C46.0629,99.5154 47.8629,101.3154 50.0629,101.3154 L50.2519,101.3154 C52.4519,101.3154 54.2519,99.5154 54.2519,97.3154 L54.2519,87.9244 C54.2519,85.7244 52.4519,83.9244 50.2519,83.9244" id="Fill-28" fill="#FED329"></path>
        </g>
    </g>
</svg>