<svg width="90" height="113" xmlns="http://www.w3.org/2000/svg"><g fill="#DFDFDF" fill-rule="nonzero"><path d="M88.3 27.7l-12.8-5 10-9.5c.9-.8.9-2.2.1-3.1l-4-4.3c-.8-.9-2.2-.9-3.1-.1l-9.1 8.6L67 2.1C66.8.9 65.6.1 64.4.4l-5.8 1.1c-1.2.2-2 1.4-1.7 2.6l2.4 12.3-11.7-4.6c-1.1-.4-2.4.1-2.8 1.2l-2.1 5.5c-.4 1.1.1 2.4 1.2 2.8l12.8 5-10 9.5c-.9.8-.9 2.2-.1 3.1l4 4.3c.8.9 2.2.9 3.1.1l9.1-8.6L65.3 47c.2 1.2 1.4 2 2.6 1.7l5.8-1.1c1.2-.2 2-1.4 1.7-2.6L73 32.7l11.7 4.6c1.1.4 2.4-.1 2.8-1.2l2.1-5.5c.4-1.1-.2-2.4-1.3-2.9zM30.8 53.6l-8.6-3.4 6.7-6.3c.6-.6.6-1.5.1-2.1L26.2 39c-.6-.6-1.5-.6-2.1-.1L18 44.7l-1.6-8.2c-.2-.8-.9-1.3-1.7-1.2l-3.9.8c-.8.2-1.3.9-1.2 1.7l1.6 8.2-7.8-3.1c-.7-.3-1.6.1-1.9.8L.1 47.4c-.3.7.1 1.6.8 1.9l8.6 3.4L3 59c-.6.6-.6 1.5-.1 2.1L5.6 64c.6.6 1.5.6 2.1.1l6.1-5.8 1.6 8.2c.2.8.9 1.3 1.7 1.2l3.9-.8c.8-.2 1.3-.9 1.2-1.7L20.6 57l7.8 3.1c.7.3 1.6-.1 1.9-.8l1.4-3.7c.2-.9-.2-1.7-.9-2zM80.1 91.6l-12.8-5 10-9.5c.9-.8.9-2.2.1-3.1l-4-4.3c-.8-.9-2.2-.9-3.1-.1l-9.1 8.6L58.8 66c-.2-1.2-1.4-2-2.6-1.7l-5.8 1.1c-1.2.2-2 1.4-1.7 2.6l2.4 12.3-11.7-4.6c-1.1-.4-2.4.1-2.8 1.2l-2.1 5.5c-.4 1.1.1 2.4 1.2 2.8l12.8 5-10 9.5c-.9.8-.9 2.2-.1 3.1l4 4.3c.8.9 2.2.9 3.1.1l9.1-8.6 2.4 12.3c.2 1.2 1.4 2 2.6 1.7l5.8-1.1c1.2-.2 2-1.4 1.7-2.6l-2.4-12.3 11.7 4.6c1.1.4 2.4-.1 2.8-1.2l2.1-5.5c.5-1.1-.1-2.4-1.2-2.9z"/></g></svg>