<svg width="144" height="136" xmlns="http://www.w3.org/2000/svg"><g fill-rule="nonzero" fill="none"><g fill="#F8D352"><path d="M138.2 49.9h-8.8c-2.8 0-5 2-5 4.4 0 2.4 2.3 4.4 5 4.4h8.8c2.8 0 5-2 5-4.4.1-2.4-2.2-4.4-5-4.4zM116.1 7.3c-2.1-1.2-5-.3-6.4 2.1l-4.4 7.6c-1.4 2.4-.8 5.4 1.3 6.6 2.1 1.2 5 .3 6.4-2.1l4.4-7.6c1.4-2.5.8-5.4-1.3-6.6zM113 87.2c-1.4-2.4-4.2-3.4-6.4-2.1-2.1 1.2-2.7 4.2-1.3 6.6l4.4 7.6c1.4 2.4 4.2 3.4 6.4 2.1 2.1-1.2 2.7-4.2 1.3-6.6l-4.4-7.6zM133.8 75.1l-7.6-4.4c-2.4-1.4-5.4-.8-6.6 1.3-1.2 2.1-.3 5 2.1 6.4l7.6 4.4c2.4 1.4 5.4.8 6.6-1.3 1.3-2.2.3-5-2.1-6.4zM126.2 37.9l7.6-4.4c2.4-1.4 3.4-4.2 2.1-6.4-1.2-2.1-4.2-2.7-6.6-1.3l-7.6 4.4c-2.4 1.4-3.4 4.2-2.1 6.4 1.3 2.1 4.2 2.7 6.6 1.3zM88.9 18.8c2.4 0 4.4-2.3 4.4-5V5c0-2.8-2-5-4.4-5-2.4 0-4.4 2.3-4.4 5v8.8c0 2.7 2 5 4.4 5z"/></g><g fill="#DFDFDF"><path d="M113.9 54.4c0-14.4-11.7-26.1-26.1-26.1-2.3 0-4.5.3-6.6.9C77.2 18 66.5 9.9 53.9 9.9 38.5 9.9 25.9 22 25 37.2c-.9-.1-1.9-.2-2.9-.2C10.1 37 .4 46.7.4 58.7s9.7 21.7 21.7 21.7h65.7c14.4.1 26.1-11.6 26.1-26zM33.99 89.537s-6.295 2.98-7.355 3.577c-1.06.596-1.434.894-1.932 1.61-1.62 2.265-.997 5.305 1.371 6.856 2.369 1.55 5.547.953 7.168-1.312.498-.715.623-1.133.872-2.385.25-1.252.686-7.87.686-7.87 0-.476-.312-.715-.81-.476zM79.19 114.094s-6.295 2.98-7.355 3.577c-1.06.596-1.434.894-1.932 1.61-1.62 2.265-.997 5.305 1.371 6.855 2.369 1.55 5.547.954 7.168-1.311.498-.716.623-1.133.872-2.385.25-1.252.686-7.87.686-7.87 0-.476-.312-.715-.81-.476zM84.597 89.58s-8.579 4.357-10.023 5.228c-1.444.871-1.953 1.307-2.633 2.353a7.294 7.294 0 0 0 1.869 10.02c3.228 2.265 7.56 1.394 9.768-1.917.68-1.046.85-1.656 1.19-3.485.34-1.83.934-11.502.934-11.502.085-.697-.425-1.046-1.105-.697zM66.773 104.529l-15.375.384 8.633-15.327c.146-.289.146-.625-.097-.913-.194-.289-.582-.433-1.018-.433L47.42 88c-.485.048-1.018.24-1.164.673L36.07 112.505c-.145.288-.048.624.146.912.242.24.582.385.97.385l15.279-.096-7.616 21.045c-.145.48.146.96.68 1.153.145.048.339.096.484.096.389 0 .777-.144 1.02-.432l20.759-29.55c.243-.288.291-.72.049-1.009-.194-.336-.631-.529-1.068-.48z"/></g></g></svg>