<svg width="114" height="126" xmlns="http://www.w3.org/2000/svg"><g fill="#DFDFDF" fill-rule="nonzero"><path d="M87.9 18.9c-2.3 0-4.5.3-6.6.9C77.3 8.6 66.6.5 54 .5 38.6.5 26 12.6 25.1 27.8c-.9-.1-1.9-.2-2.9-.2-12 0-21.7 9.7-21.7 21.7S10.2 71 22.2 71h65.7c14.4 0 26.1-11.7 26.1-26.1 0-14.4-11.7-26-26.1-26zM55.9 82.2s-8.4 17.8-22.2 28.2c-1.6 1.2-2.2 1.7-2.9 2.9-2.3 3.9-.9 9 3 11.3 3.9 2.3 9 .9 11.3-3 .7-1.3 1-2 1.1-4.1 1.3-17.8 11-34.5 11-34.5 0-.9-.6-1.3-1.3-.8zM40.5 78.4S33.9 87.5 25 91.8c-1 .5-1.4.7-1.9 1.3-1.7 2-1.5 4.9.5 6.7 2 1.7 4.9 1.5 6.7-.5.6-.6.7-1 1.1-2.2C34 87.3 41.2 79 41.2 79c.1-.5-.2-.8-.7-.6zM79.5 77.7s-5.6 9.8-13.9 15c-.9.6-1.3.9-1.8 1.5-1.5 2.1-.9 5.1 1.2 6.6s5.1 1 6.6-1.2c.5-.7.6-1.1.8-2.3 1.6-10.1 7.9-19.2 7.9-19.2 0-.4-.3-.6-.8-.4z"/></g></svg>