<svg width="115" height="117" xmlns="http://www.w3.org/2000/svg"><g fill="#DFDFDF" fill-rule="nonzero"><path d="M88.3 19.1c-2.3 0-4.5.3-6.6.9C77.7 8.8 67 .7 54.4.7 39 .7 26.4 12.8 25.5 28c-.9-.1-1.9-.2-2.9-.2-12 0-21.7 9.7-21.7 21.7s9.7 21.7 21.7 21.7h65.7c14.4 0 26.1-11.7 26.1-26.1 0-14.3-11.7-26-26.1-26zM73.9 101.7L65 98.2l6.9-6.6c.6-.6.6-1.5.1-2.1l-2.8-3c-.6-.6-1.5-.6-2.1-.1l-6.3 6-1.7-8.5c-.2-.8-1-1.4-1.8-1.2l-4 .8c-.8.2-1.4 1-1.2 1.8l1.7 8.5-8.1-3.2c-.8-.3-1.7.1-2 .9l-1.5 3.8c-.3.8.1 1.7.9 2l8.9 3.5-6.9 6.6c-.6.6-.6 1.5-.1 2.1l2.8 3c.6.6 1.5.6 2.1.1l6.3-6 1.7 8.5c.2.8 1 1.4 1.8 1.2l4-.8c.8-.2 1.4-1 1.2-1.8l-1.7-8.5 8.1 3.2c.8.3 1.7-.1 2-.9l1.5-3.8c.3-.8-.1-1.7-.9-2z"/></g></svg>