<svg width="122" height="93" xmlns="http://www.w3.org/2000/svg"><g fill="#DFDFDF" fill-rule="nonzero" stroke="#DFDFDF" stroke-width="2"><path d="M75.3 41.9H18.8c-1.4 0-2.5-1.1-2.5-2.5s1.1-2.5 2.5-2.5h56.5c8.2 0 15-6.7 15-15s-6.7-15-15-15c-8.2 0-15 6.7-15 15 0 1.4-1.1 2.5-2.5 2.5s-2.5-1.1-2.5-2.5c0-11.1 9-20 20-20s20 9 20 20c.1 11-8.9 20-20 20zM92 91.5c-11.1 0-20-9-20-20 0-1.4 1.1-2.5 2.5-2.5s2.5 1.1 2.5 2.5c0 8.2 6.7 15 15 15s15-6.7 15-15-6.7-15-15-15H3.8c-1.4 0-2.5-1.1-2.5-2.5s1.1-2.5 2.5-2.5H92c11.1 0 20 9 20 20s-8.9 20-20 20zM103.7 44.4h-4.3c-1.4 0-2.5-1.1-2.5-2.5s1.1-2.5 2.5-2.5h4.3c6.5 0 11.8-5.3 11.8-11.8 0-4.4-2.5-8.4-6.4-10.5-1.2-.6-1.7-2.2-1.1-3.4.6-1.2 2.2-1.7 3.4-1.1 5.6 2.9 9.2 8.6 9.2 15-.1 9.2-7.6 16.8-16.9 16.8z"/></g></svg>