<svg width="115" height="135" xmlns="http://www.w3.org/2000/svg"><g fill="#DFDFDF" fill-rule="nonzero"><path d="M88.2 19c-2.3 0-4.5.3-6.6.9C77.6 8.7 66.9.6 54.3.6c-15.4 0-28 12.1-28.9 27.3-.9-.1-1.9-.2-2.9-.2-12 0-21.7 9.7-21.7 21.7s9.7 21.7 21.7 21.7h65.7c14.4 0 26.1-11.7 26.1-26.1 0-14.3-11.7-26-26.1-26zM45.5 81.2l-9.7 22.3c-.6 1.4-2.3 2.1-3.7 1.5-1.4-.6-2.1-2.3-1.5-3.7L40.3 79c.6-1.4 2.3-2.1 3.7-1.5 1.4.6 2.1 2.2 1.5 3.7zM25.5 82.6L11 115.7c-.6 1.4-2.3 2.1-3.7 1.5-1.4-.6-2.1-2.3-1.5-3.7l14.5-33.1c.6-1.4 2.3-2.1 3.7-1.5 1.5.6 2.1 2.2 1.5 3.7zM29.8 117.4l-4 9.2c-.6 1.4-2.3 2.1-3.7 1.5-1.4-.6-2.1-2.3-1.5-3.7l4-9.2c.6-1.4 2.3-2.1 3.7-1.5 1.4.6 2.1 2.2 1.5 3.7zM77.7 94.4l-6.5-2.5 5-4.8c.4-.4.5-1.1 0-1.6l-2-2.1c-.4-.4-1.1-.5-1.6 0L68 87.7l-1.2-6.2c-.1-.6-.7-1-1.3-.9l-2.9.6c-.6.1-1 .7-.9 1.3l1.2 6.2-5.9-2.3c-.6-.2-1.2.1-1.4.6l-1.1 2.8c-.2.6.1 1.2.6 1.4l6.5 2.5-5 4.8c-.4.4-.5 1.1 0 1.6l2 2.1c.4.4 1.1.5 1.6 0l4.6-4.3 1.2 6.2c.1.6.7 1 1.3.9l2.9-.6c.6-.1 1-.7.9-1.3l-1.2-6.2 5.9 2.3c.6.2 1.2-.1 1.4-.6l1.1-2.8c.2-.6-.1-1.2-.6-1.4zM64.4 123.5L58 121l5-4.8c.4-.4.5-1.1 0-1.6l-2-2.1c-.4-.4-1.1-.5-1.6 0l-4.6 4.3-1.2-6.2c-.1-.6-.7-1-1.3-.9l-2.9.6c-.6.1-1 .7-.9 1.3l1.2 6.2-5.9-2.3c-.6-.2-1.2.1-1.4.6l-1.1 2.8c-.2.6.1 1.2.6 1.4l6.5 2.5-5 4.8c-.4.4-.5 1.1 0 1.6l2 2.1c.4.4 1.1.5 1.6 0l4.6-4.3 1.2 6.2c.1.6.7 1 1.3.9l2.9-.6c.6-.1 1-.7.9-1.3l-1.2-6.2 5.9 2.3c.6.2 1.2-.1 1.4-.6l1.1-2.8c.2-.5-.1-1.1-.7-1.4zM96 93.4l-9.7 22.3c-.6 1.4-2.3 2.1-3.7 1.5-1.4-.6-2.1-2.3-1.5-3.7l9.7-22.3c.6-1.4 2.3-2.1 3.7-1.5 1.5.6 2.1 2.2 1.5 3.7z"/></g></svg>