<svg width="106" height="101" xmlns="http://www.w3.org/2000/svg"><path d="M92.01 38.424c-4.19.724-8.381 1.608-12.493 2.492.158-.321.395-.643.553-.964.158-.322.158-.563.158-.885.396-1.527-1.265-3.215-3.242-2.17-1.74.965-4.032 3.376-4.665 5.707a858.942 858.942 0 0 0-6.8 1.689c.553-1.528 1.028-3.136 1.581-4.663.633-1.93-1.028-2.733-2.53-2.412.158-1.366-.712-2.733-2.53-1.929-1.187.482-2.452.884-3.717 1.286.712-2.25 1.423-4.582 2.135-6.833 2.53-.643 5.06-2.974 6.88-4.34 1.502-1.206.632-3.94-1.345-3.618-1.107.16-2.214.482-3.321.804 1.028-3.376 2.056-6.672 3.005-10.048.87-2.975-3.638-3.457-4.428-.804-1.028 3.537-2.056 6.993-3.163 10.45-.158-.16-.238-.322-.396-.563-.079-.321-.158-.643-.237-.804-.87-2.652-4.982-1.286-4.586 1.126-.08.321 0 .723.158 1.125.079.241.237.483.316.643.633 1.85 1.345 3.859 2.768 5.065-.554 1.688-1.028 3.376-1.582 5.064-1.265-1.125-2.61-2.09-4.27-2.411-1.107-.242-2.056.401-2.61 1.205-1.185-.723-3.162-.321-3.636 1.367-.317 1.206-.633 2.331-.95 3.537-1.423-1.527-2.925-3.135-4.348-4.743a5.125 5.125 0 0 0 .237-1.527c.158-2.01.553-4.02-.158-5.949-.633-1.93-3.242-1.93-4.27-.241-.396.563-.633 1.206-.791 1.849-2.293-2.894-4.507-5.788-6.563-8.843-1.503-2.25-5.694.161-4.191 2.412 2.135 3.215 4.507 6.35 6.958 9.325h-.474c-.554 0-.949.241-1.344.482-2.056.16-3.796 3.055-1.503 4.1 2.61 1.206 5.694 2.17 8.54 1.527a328.697 328.697 0 0 0 4.982 5.386c-1.265.402-2.689.643-3.321.884-.396.161-.712.322-.95.563-.394.16-.869.241-1.343.482-1.82.885-1.582 2.653-.396 3.457 0 .322.08.724.317 1.045.79 1.045 2.293 2.251 3.083 3.618-1.897.482-3.795.964-5.772 1.447-1.186-2.332-5.456-2.573-7.433-3.618-1.502-.804-3.242.482-3.558 1.849-.475.724-.554 1.688.316 2.412.316.321 1.186.723 2.056 1.205-3.4.724-6.8 1.528-10.28 2.17-2.925.564-2.214 4.663.87 4.181a256.513 256.513 0 0 0 11.308-2.412c-.317.965-.791 1.93-.87 2.894-.316 2.412 2.61 2.251 3.875 1.287 1.423-1.126 2.767-3.296 3.479-5.547 2.056-.482 4.033-1.045 6.01-1.528-.396 1.126-.95 2.251-1.345 3.296-.316.965 0 1.689.554 2.09-.475 1.126-.08 2.492 1.265 2.814.316.16.712.322 1.186.322 1.107 0 2.135-.322 3.163-.724 1.028-.241 2.056-.563 3.084-.723-.712 2.25-1.344 4.501-2.056 6.672a15.22 15.22 0 0 0-1.74.643c-1.107.563-1.977 1.93-3.084 2.492-1.107.482-2.135 1.447-1.897 2.733.158.643.711 1.125 1.344 1.367.395.562 1.107.803 2.135.402.395-.161.712-.322 1.107-.483-1.028 3.618-2.135 7.235-3.084 10.852-.87 2.975 3.717 3.457 4.428.804.87-3.296 1.898-6.511 2.847-9.807.158.241.316.402.474.643 1.582 1.769 4.191-.482 4.033-2.331-.158-1.93-.87-4.421-2.293-6.03.633-2.09 1.265-4.18 1.898-6.35.474.563.949 1.045 1.502 1.608.475.563.949 1.045 1.265 1.367.95.884 2.293.562 3.163-.161 1.107.723 3.4 0 4.033-1.367.395-.804.633-2.17 1.028-3.456a137.912 137.912 0 0 1 4.665 4.984c-.237 1.688 0 3.537.08 5.064 0 .241.079.482.158.643.158 1.045 1.107 1.447 2.056 1.286 1.027 0 1.976-.562 2.293-1.527 0-.08 0-.08.079-.16 2.293 2.652 4.507 5.385 6.563 8.28 1.581 2.17 5.772-.242 4.19-2.413-2.45-3.376-5.06-6.51-7.828-9.646.238 0 .554 0 .791-.08 2.214-.322 4.745-2.573 2.451-4.663-2.135-2.01-5.693-1.93-8.144-.804-1.503-1.607-3.005-3.135-4.507-4.662 1.581-.643 3.558-.804 5.06-1.126 1.898-.402 2.214-2.33 1.345-3.456 0-.161-.08-.322-.158-.483 1.027-.803 1.66-2.33.474-3.295-.949-.804-1.898-1.447-2.847-2.251 2.056-.483 4.112-1.045 6.168-1.528 1.74 1.769 4.665 3.135 6.326 3.457 1.977.402 4.112-2.09 2.53-3.778-.474-.483-1.107-.884-1.74-1.206a268.908 268.908 0 0 1 11.071-2.17c2.689-.563 3.48-4.984.395-4.422zm-35.346 2.894c.159-.08.396-.08.554-.16 1.66-.081 3.558-.965 4.982-1.528-.08.241-.08.482-.159.724-.553 1.688-1.186 3.456-1.66 5.225-1.819.482-3.558.884-5.377 1.366a65.81 65.81 0 0 1 1.66-5.627zM56.506 58.2c-.632 1.608-.949 3.538-1.186 5.306-.553-.482-1.028-1.045-1.581-1.608-.712-.723-1.345-1.447-1.898-2.25-.158-.242-.396-.483-.554-.804l1.424-4.582c1.186 1.366 2.451 2.652 3.795 3.938zm-15.815 1.126c.87-1.688 1.74-3.376 2.294-5.145 1.818-.482 3.637-.884 5.456-1.366-.396 1.366-.791 2.733-1.266 4.1-1.818.32-3.4 1.446-5.06 2.17l-1.424.24zM52 41.077c-.474 1.527-.949 2.974-1.423 4.502-1.424-1.447-2.847-2.894-4.27-4.422.87-1.768 1.186-3.858 1.66-5.707 1.424 1.93 3.163 3.457 4.033 5.627zm-12.336 4.662c1.187-.321 2.294-.643 3.322-1.205 1.423 1.447 2.767 2.894 4.19 4.34-1.186.322-2.45.563-3.637.885-.158-.643-.395-1.206-.949-1.688-.474-.402-1.107-.724-1.581-1.045-.475-.402-.95-.885-1.345-1.287zm19.848 8.923c-1.186-1.205-2.372-2.492-3.637-3.778 1.818-.482 3.637-.884 5.456-1.366.237.16.395.321.632.482.791 1.206 1.898 2.17 3.084 2.894-1.898.402-3.795.723-5.535 1.768z" fill="#DFDFDF" fill-rule="nonzero"/></svg>