<?xml version="1.0" encoding="UTF-8"?>
<svg width="128px" height="128px" viewBox="0 0 128 128" version="1.1" xmlns="http://www.w3.org/2000/svg" xmlns:xlink="http://www.w3.org/1999/xlink">
    <!-- Generator: Sketch 63.1 (92452) - https://sketch.com -->
    <title>ots_dark_wx_81</title>
    <desc>Created with Sketch.</desc>
    <defs>
        <polygon id="path-1" points="-4.08562073e-14 77.4794 81.707 77.4794 81.707 0.0004 -4.08562073e-14 0.0004 -4.08562073e-14 77.479296 -0.000273591999 -0.000320473839 81.7069621 -0.000320473839 81.7069621 77.479296 -4.03144857e-14 77.479296"></polygon>
    </defs>
    <g id="ots_dark_wx_81" stroke="none" stroke-width="1" fill="none" fill-rule="evenodd">
        <g id="Page-1" transform="translate(23.000000, 25.000000)">
            <mask id="mask-2" fill="white">
                <use xlink:href="#path-1"></use>
            </mask>
            <g id="Clip-2"></g>
            <path d="M47.7973,43.3552 C46.5973,42.1532 45.4273,40.9172 44.2233,39.7222 C46.0093,39.2682 47.8093,38.8572 49.5973,38.4122 C49.8123,38.5682 50.0203,38.7422 50.2343,38.9002 C51.0303,40.0792 52.0833,40.9972 53.2893,41.7202 C51.3653,42.0632 49.5333,42.3942 47.7973,43.3552 M28.2943,34.7062 C29.4423,34.4202 30.5603,34.0882 31.5873,33.5222 C32.9533,34.9132 34.3143,36.3102 35.6943,37.6872 C34.4923,37.9882 33.2913,38.2652 32.0903,38.5652 C31.9353,37.9502 31.6703,37.3782 31.1763,36.9192 C30.7343,36.5082 30.0913,36.2462 29.6003,35.9022 C29.1283,35.5742 28.7063,35.1432 28.2943,34.7062 M40.4413,30.2212 C39.9843,31.6722 39.5353,33.1242 39.0753,34.5762 C37.6733,33.1732 36.2913,31.7502 34.9093,30.3312 C35.7653,28.6482 36.0763,26.6352 36.5213,24.8112 C37.8303,26.6342 39.5473,28.1192 40.4413,30.2212 M29.2723,47.8832 C30.1143,46.2762 30.9673,44.6152 31.5493,42.8782 C33.3303,42.4342 35.1133,42.0182 36.8963,41.5682 C36.4843,42.8792 36.0893,44.1932 35.6793,45.5042 C33.8563,45.7832 32.3453,46.8852 30.7273,47.6142 C30.2423,47.7332 29.7583,47.8032 29.2723,47.8832 M44.8023,46.7902 C44.1803,48.3802 43.8893,50.2292 43.6443,51.8872 C43.1323,51.3872 42.6133,50.8832 42.0863,50.3532 C41.4253,49.6492 40.7933,48.9162 40.2283,48.1682 C40.0573,47.9472 39.8753,47.6912 39.6743,47.4262 C40.1333,45.9582 40.5793,44.4852 41.0383,43.0162 C42.2983,44.2692 43.5493,45.5302 44.8023,46.7902 M44.9663,30.4362 C45.1543,30.3792 45.3413,30.3222 45.5283,30.2682 C47.1953,30.1752 49.0473,29.3542 50.4063,28.7572 C50.3523,28.9952 50.2913,29.2282 50.2323,29.4652 C49.6633,31.1332 49.0973,32.8022 48.5863,34.4902 C46.8223,34.9282 45.0553,35.3362 43.2893,35.7822 C43.8493,33.9992 44.4063,32.2192 44.9663,30.4362 M79.7353,27.6442 C75.6103,28.3562 71.5093,29.1882 67.4123,30.0642 C67.5913,29.7462 67.7893,29.4382 67.9543,29.1082 C68.0963,28.8212 68.1233,28.5282 68.0893,28.2462 C68.4493,26.7492 66.8463,25.1142 64.8933,26.1472 C63.1513,27.0692 60.9153,29.4232 60.2763,31.6402 C58.0363,32.1592 55.7993,32.7332 53.5613,33.2782 C54.0713,31.7722 54.5973,30.2732 55.0803,28.7562 C55.6793,26.9032 54.0473,26.0852 52.5923,26.3902 C52.7733,25.0462 51.9053,23.7692 50.1293,24.5002 C48.9263,24.9972 47.6863,25.3672 46.4423,25.7252 C47.1343,23.5212 47.8293,21.3202 48.5153,19.1132 C51.0123,18.4562 53.4973,16.2282 55.2463,14.9002 C56.7323,13.7682 55.8623,11.1122 53.8993,11.4162 C52.7763,11.5922 51.6993,11.9112 50.6123,12.2072 C51.6073,8.9602 52.6133,5.7182 53.5773,2.4602 C54.4343,-0.4408 49.9843,-0.8618 49.2423,1.6532 C48.2433,5.0382 47.1973,8.4042 46.1643,11.7742 C46.0363,11.6062 45.9053,11.4252 45.7843,11.2122 C45.6823,10.8972 45.5953,10.6172 45.5443,10.4632 C44.7243,7.9332 40.6483,9.2552 41.0143,11.5232 C40.9723,11.8652 40.9913,12.2162 41.1533,12.5732 C41.2563,12.8052 41.3873,13.0062 41.4993,13.2252 C42.0933,15.0292 42.8563,16.9602 44.2243,18.1612 C43.7113,19.8062 43.1923,21.4512 42.6793,23.0952 C41.4463,22.0222 40.1353,21.0932 38.4743,20.7452 C37.3983,20.5202 36.4643,21.1202 35.9333,21.9232 C34.7913,21.2232 32.8333,21.6102 32.3723,23.2452 C32.0953,24.3802 31.7843,25.5362 31.4023,26.6652 C29.9703,25.1502 28.5343,23.6382 27.1483,22.0852 C27.2733,21.5872 27.3673,21.0792 27.4103,20.5952 C27.5863,18.6742 27.9323,16.7432 27.2903,14.8732 C26.6493,13.0092 24.1343,13.0282 23.1273,14.6282 C22.7653,15.2062 22.5193,15.7952 22.3253,16.3912 C20.0733,13.6232 17.8823,10.7932 15.8593,7.8162 C14.3663,5.6212 10.2503,7.9922 11.7363,10.1812 C13.8703,13.3202 16.1873,16.2932 18.5753,19.2052 C18.4253,19.2072 18.2753,19.2032 18.1193,19.2042 C17.5883,19.2102 17.1633,19.4032 16.7963,19.6642 C14.7853,19.8222 13.0323,22.6172 15.2893,23.6262 C17.8173,24.7552 20.8653,25.7052 23.6503,25.1402 C25.2513,26.9172 26.8973,28.6532 28.5523,30.3842 C27.3223,30.7352 25.9133,30.9862 25.3013,31.2042 C24.9253,31.3352 24.6333,31.5382 24.3813,31.7712 C23.9563,31.9272 23.5093,32.0142 23.0863,32.2092 C21.3133,33.0262 21.5553,34.7502 22.6663,35.5482 C22.6553,35.8782 22.7393,36.2222 22.9893,36.5592 C23.7343,37.5642 25.2163,38.7672 26.0293,40.0372 C24.1453,40.4922 22.2663,40.9732 20.3763,41.4132 C19.2003,39.1802 15.0003,38.9032 13.0873,37.8972 C11.6173,37.1222 9.9333,38.3742 9.6033,39.7222 C9.1373,40.4552 9.0883,41.3382 9.8963,42.0432 C10.2403,42.3442 11.0723,42.7642 11.9133,43.2202 C8.5493,43.9362 5.1913,44.7032 1.8083,45.3062 C-1.0347,45.8122 -0.3537,49.8492 2.6493,49.3122 C6.3833,48.6472 10.0833,47.8022 13.7943,47.0012 C13.4553,47.9242 13.0343,48.8502 12.9083,49.7782 C12.5983,52.0802 15.4973,51.9472 16.7113,51.0172 C18.1303,49.9312 19.4053,47.7942 20.1103,45.6802 C22.0963,45.2192 24.0703,44.7052 26.0503,44.2242 C25.6323,45.3272 25.0933,46.4112 24.7553,47.4192 C24.4473,48.3452 24.7623,49.0352 25.3283,49.4552 C24.8693,50.5232 25.2253,51.8312 26.6063,52.1722 C26.9143,52.3532 27.2813,52.4872 27.7763,52.4852 C28.8853,52.4812 29.9113,52.1812 30.9023,51.7742 C31.9083,51.5182 32.9273,51.2582 33.9643,51.0642 C33.2963,53.2252 32.6183,55.3842 31.9593,57.5492 C31.3803,57.6952 30.8143,57.9182 30.2813,58.1962 C29.1793,58.7742 28.3573,60.0952 27.2503,60.5712 C26.1803,61.0272 25.1393,61.9412 25.4163,63.2482 C25.5503,63.8962 26.0883,64.3572 26.7123,64.5692 C27.1213,65.0872 27.8213,65.3392 28.8143,64.9422 C29.1793,64.7952 29.5423,64.6552 29.9083,64.5102 C28.8763,68.0072 27.8183,71.4992 26.8373,75.0122 C26.0203,77.9212 30.4643,78.3442 31.1733,75.8182 C32.0613,72.6432 33.0163,69.4922 33.9513,66.3312 C34.1163,66.5352 34.2673,66.7542 34.4463,66.9462 C36.0363,68.6402 38.5473,66.4842 38.4193,64.6662 C38.2903,62.7752 37.5573,60.3842 36.1463,58.8552 C36.7613,56.8152 37.4053,54.7832 38.0343,52.7472 C38.5063,53.2802 38.9853,53.7882 39.4843,54.2922 C39.9783,54.8392 40.4093,55.3282 40.7393,55.6282 C41.6633,56.4752 42.9683,56.1772 43.8473,55.4432 C44.9053,56.1542 47.1753,55.4082 47.7853,54.1462 C48.1653,53.3532 48.4193,52.0472 48.7573,50.8152 C50.3003,52.4032 51.8453,53.9902 53.3503,55.6162 C53.1383,57.2592 53.3543,59.0692 53.4343,60.4942 C53.4463,60.7392 53.5303,60.9222 53.6013,61.1172 C53.7463,62.1252 54.6543,62.5222 55.6553,62.3922 C56.6273,62.3622 57.5803,61.8392 57.8863,60.9282 C57.9103,60.8832 57.9203,60.8312 57.9423,60.7822 C60.1763,63.3752 62.3583,66.0152 64.4093,68.7722 C65.9883,70.8952 70.1043,68.5192 68.5343,66.4092 C66.1223,63.1702 63.5273,60.0952 60.8753,57.0792 C61.1243,57.0682 61.3843,57.0662 61.6233,57.0332 C63.8063,56.7252 66.2583,54.5462 64.0623,52.5062 C61.9783,50.5702 58.4973,50.6252 56.0293,51.7262 C54.5873,50.1962 53.0783,48.7312 51.6053,47.2272 C53.1653,46.6402 55.0893,46.4402 56.5433,46.1492 C58.4333,45.7742 58.7363,43.8692 57.8483,42.8072 C57.8263,42.6472 57.7563,42.5042 57.6973,42.3562 C58.7393,41.5592 59.3183,40.0812 58.1943,39.1582 C57.2813,38.4072 56.3153,37.7252 55.3843,37.0022 C57.4153,36.5122 59.4383,35.9852 61.4733,35.5182 C63.1773,37.2182 66.0493,38.5382 67.7073,38.8622 C69.6673,39.2472 71.7733,36.8402 70.1753,35.1822 C69.6913,34.6782 69.0963,34.3192 68.4803,33.9852 C72.1093,33.2212 75.7443,32.4922 79.3923,31.8622 C82.0093,31.4102 82.7793,27.1182 79.7353,27.6442" id="Fill-1" fill="#D3D3D3"></path>
        </g>
    </g>
</svg>