<svg width="114" height="121" xmlns="http://www.w3.org/2000/svg"><g fill="#DFDFDF" fill-rule="nonzero"><path d="M87.4 18.4c-2.3 0-4.5.3-6.6.9C76.9 8 66.1 0 53.5 0c-15.4 0-28 12.1-28.9 27.3-.9-.1-1.9-.2-2.9-.2C9.7 27.1 0 36.8 0 48.8s9.7 21.7 21.7 21.7h65.7c14.4 0 26.1-11.7 26.1-26.1 0-14.3-11.7-26-26.1-26z"/><path d="M87.4 18.4c-2.3 0-4.5.3-6.6.9C76.9 8 66.1 0 53.5 0c-15.4 0-28 12.1-28.9 27.3-.9-.1-1.9-.2-2.9-.2C9.7 27.1 0 36.8 0 48.8s9.7 21.7 21.7 21.7h65.7c14.4 0 26.1-11.7 26.1-26.1 0-14.3-11.7-26-26.1-26zM42.3 103.3s-7.9 3.9-9.2 4.7c-1.3.8-1.8 1.2-2.4 2.1-2 2.9-1.2 6.9 1.7 8.9s6.9 1.2 8.9-1.7c.7-1 .8-1.5 1.1-3.1.3-1.6.9-10.3.9-10.3.1-.6-.4-.9-1-.6zM64.3 103.3s-7.9 3.9-9.2 4.7c-1.3.8-1.8 1.2-2.4 2.1-2 2.9-1.2 6.9 1.7 8.9s6.9 1.2 8.9-1.7c.7-1 .8-1.5 1.1-3.1.3-1.6.9-10.3.9-10.3.1-.6-.4-.9-1-.6zM58.7 78.8s-7.9 3.9-9.2 4.7c-1.3.8-1.8 1.2-2.4 2.1-2 2.9-1.2 6.9 1.7 8.9s6.9 1.2 8.9-1.7c.7-1 .8-1.5 1.1-3.1.3-1.6.9-10.3.9-10.3.1-.6-.4-.9-1-.6zM33.9 78.9s-10.1 5-11.8 6c-1.7 1-2.3 1.5-3.1 2.7-2.6 3.8-1.6 8.9 2.2 11.5 3.8 2.6 8.9 1.6 11.5-2.2.8-1.2 1-1.9 1.4-4 .4-2.1 1.1-13.2 1.1-13.2.1-.8-.5-1.2-1.3-.8zM84.8 78.9s-10.1 5-11.8 6c-1.7 1-2.3 1.5-3.1 2.7-2.6 3.8-1.6 8.9 2.2 11.5 3.8 2.6 8.9 1.6 11.5-2.2.8-1.2 1-1.9 1.4-4 .4-2.1 1.1-13.2 1.1-13.2.1-.8-.5-1.2-1.3-.8z"/></g></svg>