<svg width="115" height="130" xmlns="http://www.w3.org/2000/svg"><g fill="#DFDFDF" fill-rule="nonzero"><path d="M88.2 18.8c-2.3 0-4.5.3-6.6.9C77.6 8.5 66.9.4 54.3.4c-15.4 0-28 12.1-28.9 27.3-.9-.1-1.9-.2-2.9-.2-12 0-21.7 9.7-21.7 21.7s9.7 21.7 21.7 21.7h65.7c14.4 0 26.1-11.7 26.1-26.1 0-14.4-11.7-26-26.1-26zM92.1 102.8l-11-4.3 8.6-8.2c.8-.7.8-1.9.1-2.7l-3.5-3.7c-.7-.8-1.9-.8-2.7-.1l-7.8 7.4-2.1-10.6c-.2-1-1.2-1.7-2.2-1.5l-5 1c-1 .2-1.7 1.2-1.5 2.2l2.1 10.6-10-3.9c-1-.4-2.1.1-2.4 1.1l-1.8 4.7c-.4 1 .1 2.1 1.1 2.4l11 4.3-8.6 8.2c-.8.7-.8 1.9-.1 2.7l3.5 3.7c.7.8 1.9.8 2.7.1l7.8-7.4 2.1 10.6c.2 1 1.2 1.7 2.2 1.5l5-1c1-.2 1.7-1.2 1.5-2.2L79 107.1l10 3.9c1 .4 2.1-.1 2.4-1.1l1.8-4.7c.3-.9-.1-2-1.1-2.4zM39.1 90.7L33 88.3l4.8-4.5c.4-.4.4-1.1 0-1.5l-1.9-2c-.4-.4-1.1-.4-1.5 0l-4.3 4.1-1.1-5.9c-.1-.6-.7-.9-1.2-.8l-2.8.5c-.6.1-.9.7-.8 1.2l1.1 5.9-5.6-2.2c-.5-.2-1.1.1-1.4.6l-1 2.6c-.2.5.1 1.1.6 1.3L24 90l-4.8 4.5c-.4.4-.4 1.1 0 1.5l1.9 2c.4.4 1.1.4 1.5 0l4.4-4 1.1 5.9c.1.6.7.9 1.2.8l2.8-.5c.6-.1.9-.7.8-1.2l-1.1-5.9 5.6 2.2c.5.2 1.1-.1 1.3-.6l1-2.6c.2-.5-.1-1.2-.6-1.4zM49.9 119.4l-6.1-2.4 4.8-4.5c.4-.4.4-1.1 0-1.5l-1.9-2c-.4-.4-1.1-.4-1.5 0l-4.3 4.1-1.1-5.9c-.1-.6-.7-.9-1.2-.8l-2.8.5c-.6.1-.9.7-.8 1.2l1.1 5.9-5.6-2.2c-.5-.2-1.1.1-1.4.6l-1 2.6c-.2.5.1 1.1.6 1.3l6.1 2.4-4.8 4.5c-.4.4-.4 1.1 0 1.5l1.9 2c.4.4 1.1.4 1.5 0l4.3-4.1 1.1 5.9c.1.6.7.9 1.2.8l2.8-.5c.6-.1.9-.7.8-1.2l-1.1-5.9 5.6 2.2c.5.2 1.1-.1 1.3-.6l1-2.6c.3-.5 0-1.1-.5-1.3z"/></g></svg>