<?xml version="1.0" encoding="UTF-8"?>
<svg width="128px" height="128px" viewBox="0 0 128 128" version="1.1" xmlns="http://www.w3.org/2000/svg" xmlns:xlink="http://www.w3.org/1999/xlink">
    <!-- Generator: Sketch 63.1 (92452) - https://sketch.com -->
    <title>ots_dark_wx_87</title>
    <desc>Created with Sketch.</desc>
    <defs>
        <polygon id="path-1" points="90.3009 0.349 2.84216688e-14 0.349 2.84216688e-14 96 90.301 96 90.301 0.349 90.3009 56.5336 -0.0001 56.5336 -0.0001 0.3486 90.3009 0.3486"></polygon>
        <polygon id="path-3" points="90.3009 0.349 2.84216688e-14 0.349 2.84216688e-14 96 90.301 96 90.301 0.349 90.3009 56.5336 -0.0001 56.5336 -0.0001 0.3486 90.3009 0.3486"></polygon>
    </defs>
    <g id="ots_dark_wx_87" stroke="none" stroke-width="1" fill="none" fill-rule="evenodd">
        <g id="Page-1" transform="translate(19.000000, 16.000000)">
            <g id="Group-3" transform="translate(0.000000, 0.651100)">
                <mask id="mask-2" fill="white">
                    <use xlink:href="#path-1"></use>
                </mask>
                <g id="Clip-2"></g>
                <path d="M69.5489,15.0296 C67.7269,15.0296 65.9589,15.2666 64.2759,15.7076 C61.1209,6.7606 52.5979,0.3486 42.5719,0.3486 C30.2889,0.3486 20.2539,9.9726 19.5959,22.0906 C18.8439,21.9926 18.0839,21.9226 17.3049,21.9226 C7.7459,21.9226 -0.0001,29.6706 -0.0001,39.2286 C-0.0001,48.7866 7.7459,56.5336 17.3049,56.5336 L69.5489,56.5336 C81.0099,56.5336 90.3009,47.2456 90.3009,35.7816 C90.3009,24.3186 81.0099,15.0296 69.5489,15.0296" id="Fill-1" fill="#D3D3D3"></path>
            </g>
            <g id="Group-6" transform="translate(0.000000, 0.651100)">
                <mask id="mask-4" fill="white">
                    <use xlink:href="#path-3"></use>
                </mask>
                <g id="Clip-5"></g>
                <path d="M69.5489,15.0296 C67.7269,15.0296 65.9589,15.2666 64.2759,15.7076 C61.1209,6.7606 52.5979,0.3486 42.5719,0.3486 C30.2889,0.3486 20.2539,9.9726 19.5959,22.0906 C18.8439,21.9926 18.0839,21.9226 17.3049,21.9226 C7.7459,21.9226 -0.0001,29.6706 -0.0001,39.2286 C-0.0001,48.7866 7.7459,56.5336 17.3049,56.5336 L69.5489,56.5336 C81.0099,56.5336 90.3009,47.2456 90.3009,35.7816 C90.3009,24.3186 81.0099,15.0296 69.5489,15.0296" id="Fill-4" fill="#D3D3D3"></path>
            </g>
            <path d="M33.6293,83.2351 C33.6293,83.2351 27.3563,86.3261 26.3283,86.9711 C25.2993,87.6191 24.9083,87.9171 24.4023,88.6621 C22.8153,90.9981 23.4223,94.1781 25.7583,95.7651 C28.0943,97.3531 31.2743,96.7471 32.8613,94.4121 C33.3793,93.6511 33.4653,93.2311 33.7293,91.9431 C33.9923,90.6581 34.4323,83.7771 34.4323,83.7771 C34.4793,83.2291 34.1173,82.9851 33.6293,83.2351" id="Fill-7" fill="#D3D3D3"></path>
            <path d="M51.1355,83.2351 C51.1355,83.2351 44.8625,86.3271 43.8365,86.9721 C42.8075,87.6191 42.4165,87.9181 41.9105,88.6631 C40.3225,90.9981 40.9285,94.1781 43.2645,95.7661 C45.6005,97.3531 48.7805,96.7481 50.3675,94.4121 C50.8855,93.6511 50.9735,93.2321 51.2375,91.9441 C51.5005,90.6591 51.9405,83.7771 51.9405,83.7771 C51.9875,83.2291 51.6235,82.9841 51.1355,83.2351" id="Fill-9" fill="#D3D3D3"></path>
            <path d="M46.6779,63.7634 C46.6779,63.7634 40.4049,66.8544 39.3769,67.4994 C38.3479,68.1474 37.9569,68.4454 37.4509,69.1904 C35.8639,71.5264 36.4709,74.7064 38.8069,76.2934 C41.1429,77.8814 44.3229,77.2754 45.9099,74.9404 C46.4279,74.1794 46.5139,73.7594 46.7779,72.4714 C47.0409,71.1864 47.4809,64.3054 47.4809,64.3054 C47.5279,63.7574 47.1659,63.5134 46.6779,63.7634" id="Fill-11" fill="#D3D3D3"></path>
            <path d="M26.9404,63.7913 C26.9404,63.7913 18.8804,67.7623 17.5614,68.5913 C16.2384,69.4233 15.7364,69.8063 15.0874,70.7633 C13.0474,73.7643 13.8274,77.8503 16.8284,79.8893 C19.8294,81.9293 23.9144,81.1503 25.9544,78.1503 C26.6194,77.1733 26.7294,76.6333 27.0684,74.9783 C27.4074,73.3273 27.9714,64.4873 27.9714,64.4873 C28.0324,63.7833 27.5674,63.4703 26.9404,63.7913" id="Fill-13" fill="#D3D3D3"></path>
            <path d="M67.457,63.7913 C67.457,63.7913 59.397,67.7623 58.08,68.5913 C56.758,69.4233 56.256,69.8063 55.606,70.7633 C53.566,73.7643 54.344,77.8503 57.345,79.8893 C60.346,81.9293 64.431,81.1503 66.471,78.1503 C67.136,77.1733 67.249,76.6333 67.588,74.9783 C67.926,73.3273 68.491,64.4873 68.491,64.4873 C68.551,63.7833 68.084,63.4703 67.457,63.7913" id="Fill-15" fill="#D3D3D3"></path>
        </g>
    </g>
</svg>