<svg width="114" height="116" xmlns="http://www.w3.org/2000/svg"><g fill="#DFDFDF" fill-rule="nonzero"><path d="M87.4 18.7c-2.3 0-4.5.3-6.6.9C76.8 8.4 66.1.3 53.5.3c-15.4 0-28 12.1-28.9 27.3-.9-.1-1.9-.2-2.9-.2C9.7 27.4 0 37.1 0 49.1s9.7 21.7 21.7 21.7h65.7c14.4 0 26.1-11.7 26.1-26.1 0-14.3-11.7-26-26.1-26zM35.1 78.3s-10.1 5-11.8 6c-1.7 1-2.3 1.5-3.1 2.7-2.6 3.8-1.6 8.9 2.2 11.5 3.8 2.6 8.9 1.6 11.5-2.2.8-1.2 1-1.9 1.4-4 .4-2.1 1.1-13.2 1.1-13.2 0-.8-.6-1.2-1.3-.8zM86 78.3s-10.1 5-11.8 6c-1.7 1-2.3 1.5-3.1 2.7-2.6 3.8-1.6 8.9 2.2 11.5 3.8 2.6 8.9 1.6 11.5-2.2.8-1.2 1-1.9 1.4-4 .4-2.1 1.1-13.2 1.1-13.2.1-.8-.5-1.2-1.3-.8zM56.4 94.2s-10.1 5-11.8 6c-1.7 1-2.3 1.5-3.1 2.7-2.6 3.8-1.6 8.9 2.2 11.5 3.8 2.6 8.9 1.6 11.5-2.2.8-1.2 1-1.9 1.4-4 .4-2.1 1.1-13.2 1.1-13.2.1-.8-.5-1.2-1.3-.8z"/></g></svg>