<svg width="144" height="127" xmlns="http://www.w3.org/2000/svg"><g fill-rule="nonzero" fill="none"><g fill="#F8D352"><path d="M139 50.1h-10.1c-2.4 0-4.3 1.9-4.3 4.3v.2c0 2.4 1.9 4.3 4.3 4.3H139c2.4 0 4.3-1.9 4.3-4.3v-.2c0-2.3-1.9-4.3-4.3-4.3zM116.4 7.7l-.2-.1c-2.1-1.2-4.7-.5-5.9 1.6l-5.1 8.8c-1.2 2.1-.5 4.7 1.6 5.9l.2.1c2.1 1.2 4.7.5 5.9-1.6l5.1-8.8c1.1-2 .4-4.7-1.6-5.9zM112.9 86.7c-1.2-2.1-3.8-2.8-5.9-1.6l-.2.1c-2.1 1.2-2.8 3.8-1.6 5.9l5.1 8.8c1.2 2.1 3.8 2.8 5.9 1.6l.2-.1c2.1-1.2 2.8-3.8 1.6-5.9l-5.1-8.8zM134.6 75.6l-8.8-5.1c-2.1-1.2-4.7-.5-5.9 1.6l-.1.2c-1.2 2.1-.5 4.7 1.6 5.9l8.8 5.1c2.1 1.2 4.7.5 5.9-1.6l.1-.2c1.1-2 .4-4.7-1.6-5.9zM119.9 37c1.2 2.1 3.8 2.8 5.9 1.6l8.8-5.1c2.1-1.2 2.8-3.8 1.6-5.9l-.1-.2c-1.2-2.1-3.8-2.8-5.9-1.6l-8.8 5.1c-2.1 1.2-2.8 3.8-1.6 5.9l.1.2zM89.1 19.2h.2c2.4 0 4.3-1.9 4.3-4.3V4.8c0-2.4-1.9-4.3-4.3-4.3h-.2c-2.4 0-4.3 1.9-4.3 4.3v10.1c0 2.4 1.9 4.3 4.3 4.3z"/></g><g fill="#DFDFDF"><path d="M87.4 29.7c-2.3 0-4.5.3-6.6.9-4-11.2-14.7-19.3-27.3-19.3-15.4 0-28 12.1-28.9 27.3-.9-.1-1.9-.2-2.9-.2C9.7 38.4 0 48.1 0 60.1s9.7 21.7 21.7 21.7h65.7c14.4 0 26.1-11.7 26.1-26.1 0-14.3-11.7-26-26.1-26zM35.1 89.3s-10.1 5-11.8 6c-1.7 1-2.3 1.5-3.1 2.7-2.6 3.8-1.6 8.9 2.2 11.5 3.8 2.6 8.9 1.6 11.5-2.2.8-1.2 1-1.9 1.4-4 .4-2.1 1.1-13.2 1.1-13.2 0-.8-.6-1.2-1.3-.8zM86 89.3s-10.1 5-11.8 6c-1.7 1-2.3 1.5-3.1 2.7-2.6 3.8-1.6 8.9 2.2 11.5 3.8 2.6 8.9 1.6 11.5-2.2.8-1.2 1-1.9 1.4-4 .4-2.1 1.1-13.2 1.1-13.2.1-.8-.5-1.2-1.3-.8zM56.4 105.2s-10.1 5-11.8 6c-1.7 1-2.3 1.5-3.1 2.7-2.6 3.8-1.6 8.9 2.2 11.5 3.8 2.6 8.9 1.6 11.5-2.2.8-1.2 1-1.9 1.4-4 .4-2.1 1.1-13.2 1.1-13.2.1-.8-.5-1.2-1.3-.8z"/></g></g></svg>