<?xml version="1.0" encoding="UTF-8"?>
<svg width="128px" height="128px" viewBox="0 0 128 128" version="1.1" xmlns="http://www.w3.org/2000/svg" xmlns:xlink="http://www.w3.org/1999/xlink">
    <!-- Generator: Sketch 63.1 (92452) - https://sketch.com -->
    <title>ots_dark_wx_92</title>
    <desc>Created with Sketch.</desc>
    <g id="ots_dark_wx_92" stroke="none" stroke-width="1" fill="none" fill-rule="evenodd">
        <g id="Page-1" transform="translate(7.000000, 13.000000)">
            <path d="M90.301,43.3259 C90.301,31.8629 81.01,22.5739 69.549,22.5739 C67.727,22.5739 65.959,22.8099 64.276,23.2519 C61.121,14.3049 52.598,7.8919 42.572,7.8919 C30.289,7.8919 20.256,17.5169 19.596,29.6349 C18.846,29.5369 18.084,29.4669 17.305,29.4669 C7.746,29.4669 0,37.2149 0,46.7729 C0,56.3299 7.746,64.0779 17.305,64.0779 L69.549,64.0779 C81.01,64.0779 90.301,54.7889 90.301,43.3259" id="Fill-1" fill="#D3D3D3"></path>
            <path d="M109.676,39.7028 L102.686,39.7028 C100.487,39.7028 98.686,41.2908 98.686,43.2298 C98.686,45.1718 100.487,46.7598 102.686,46.7598 L109.676,46.7598 C111.875,46.7598 113.676,45.1718 113.676,43.2298 C113.676,41.2908 111.875,39.7028 109.676,39.7028" id="Fill-3" fill="#FED329"></path>
            <path d="M92.0588,5.7927 C90.3788,4.8217 88.1038,5.5857 87.0038,7.4917 L83.5098,13.5447 C82.4088,15.4487 82.8848,17.8027 84.5648,18.7727 C86.2468,19.7437 88.5218,18.9777 89.6208,17.0737 L93.1158,11.0217 C94.2148,9.1147 93.7408,6.7637 92.0588,5.7927" id="Fill-5" fill="#FED329"></path>
            <path d="M89.6213,69.3903 C88.5213,67.4843 86.2463,66.7203 84.5643,67.6913 C82.8853,68.6603 82.4083,71.0133 83.5103,72.9173 L87.0043,78.9723 C88.1033,80.8763 90.3793,81.6423 92.0593,80.6713 C93.7403,79.7013 94.2153,77.3473 93.1153,75.4433 L89.6213,69.3903 Z" id="Fill-7" fill="#FED329"></path>
            <path d="M106.1838,59.7888 L100.1308,56.2968 C98.2268,55.1948 95.8728,55.6718 94.9028,57.3508 C93.9318,59.0328 94.6978,61.3088 96.6018,62.4078 L102.6548,65.9038 C104.5608,67.0038 106.9128,66.5288 107.8828,64.8478 C108.8538,63.1638 108.0878,60.8888 106.1838,59.7888" id="Fill-9" fill="#FED329"></path>
            <path d="M100.1311,30.1677 L106.1841,26.6717 C108.0901,25.5717 108.8541,23.2967 107.8831,21.6147 C106.9121,19.9337 104.5611,19.4587 102.6541,20.5587 L96.6021,24.0547 C94.6971,25.1537 93.9321,27.4297 94.9021,29.1107 C95.8731,30.7927 98.2271,31.2677 100.1311,30.1677" id="Fill-11" fill="#FED329"></path>
            <path d="M70.4456,14.988 C72.3846,14.988 73.9726,13.189 73.9726,10.988 L73.9726,4 C73.9726,1.8 72.3846,0 70.4456,0 C68.5046,0 66.9166,1.8 66.9166,4 L66.9166,10.988 C66.9166,13.189 68.5046,14.988 70.4456,14.988" id="Fill-13" fill="#FED329"></path>
            <path d="M26.3093,71.311 C26.3093,71.311 18.2493,75.282 16.9303,76.111 C15.6073,76.943 15.1053,77.326 14.4553,78.283 C12.4153,81.284 13.1963,85.37 16.1973,87.409 C19.1983,89.449 23.2833,88.67 25.3233,85.67 C25.9883,84.693 26.0983,84.153 26.4373,82.498 C26.7763,80.847 27.3403,72.007 27.3403,72.007 C27.4013,71.303 26.9363,70.99 26.3093,71.311" id="Fill-15" fill="#D3D3D3"></path>
            <path d="M66.8259,71.311 C66.8259,71.311 58.7659,75.282 57.4489,76.111 C56.1269,76.943 55.6249,77.326 54.9749,78.283 C52.9349,81.284 53.7129,85.37 56.7139,87.409 C59.7149,89.449 63.7999,88.67 65.8399,85.67 C66.5049,84.693 66.6179,84.153 66.9569,82.498 C67.2949,80.847 67.8599,72.007 67.8599,72.007 C67.9199,71.303 67.4529,70.99 66.8259,71.311" id="Fill-17" fill="#D3D3D3"></path>
            <g id="Group-21" transform="translate(30.000000, 83.266000)" fill="#D3D3D3">
                <path d="M13.2954,0.7642 C13.2954,0.7642 5.2354,4.7362 3.9164,5.5652 C2.5934,6.3962 2.0914,6.7802 1.4414,7.7372 C-0.5976,10.7372 0.1824,14.8232 3.1834,16.8632 C6.1844,18.9022 10.2694,18.1242 12.3094,15.1232 C12.9744,14.1462 13.0844,13.6082 13.4234,11.9532 C13.7624,10.3022 14.3264,1.4602 14.3264,1.4602 C14.3874,0.7562 13.9224,0.4422 13.2954,0.7642" id="Fill-19"></path>
            </g>
        </g>
    </g>
</svg>