<?xml version="1.0" encoding="UTF-8"?>
<svg width="128px" height="128px" viewBox="0 0 128 128" version="1.1" xmlns="http://www.w3.org/2000/svg" xmlns:xlink="http://www.w3.org/1999/xlink">
    <!-- Generator: Sketch 63.1 (92452) - https://sketch.com -->
    <title>ots_dark_wx_96</title>
    <desc>Created with Sketch.</desc>
    <defs>
        <polygon id="path-1" points="2.71050543e-20 0.5245 2.71050543e-20 56.6725 90.2396 56.6725 90.2396 0.5245 0 0.5245"></polygon>
        <polygon id="path-3" points="11.601 7.3658 11.601 0.3138 0.6185 0.3138 0.6185 7.3658 11.601 7.3658"></polygon>
        <polygon id="path-5" points="7.9226 0.638 0.8706 0.638 0.8706 15.6158 7.9226 15.6158 7.9226 0.638"></polygon>
    </defs>
    <g id="ots_dark_wx_96" stroke="none" stroke-width="1" fill="none" fill-rule="evenodd">
        <g id="Page-1" transform="translate(9.000000, 6.000000)">
            <g id="Group-3" transform="translate(0.000000, 8.362000)">
                <mask id="mask-2" fill="white">
                    <use xlink:href="#path-1"></use>
                </mask>
                <g id="Clip-2"></g>
                <path d="M90.2396,35.9345 C90.2396,24.4795 80.9546,15.1965 69.5016,15.1965 C67.6806,15.1965 65.9146,15.4325 64.2316,15.8735 C61.0796,6.9325 52.5616,0.5245 42.5436,0.5245 C30.2686,0.5245 20.2426,10.1435 19.5826,22.2525 C18.8326,22.1545 18.0716,22.0845 17.2926,22.0845 C7.7406,22.0845 -0.0004,29.8275 -0.0004,39.3795 C-0.0004,48.9295 7.7406,56.6725 17.2926,56.6725 L69.5016,56.6725 C80.9546,56.6725 90.2396,47.3895 90.2396,35.9345" id="Fill-1" fill="#D3D3D3" mask="url(#mask-2)"></path>
            </g>
            <g id="Group-6" transform="translate(98.000000, 40.362000)">
                <mask id="mask-4" fill="white">
                    <use xlink:href="#path-3"></use>
                </mask>
                <g id="Clip-5"></g>
                <path d="M11.6015,0.3138 L4.6165,0.3138 C2.4185,0.3138 0.6185,1.9008 0.6185,3.8388 C0.6185,5.7788 2.4185,7.3658 4.6165,7.3658 L11.6015,7.3658" id="Fill-4" fill="#FED329" mask="url(#mask-4)"></path>
            </g>
            <path d="M91.9962,6.7887 C90.3172,5.8187 88.0442,6.5817 86.9452,8.4867 L83.4532,14.5357 C82.3522,16.4387 82.8282,18.7907 84.5072,19.7607 C86.1872,20.7307 88.4612,19.9657 89.5602,18.0627 L93.0522,12.0137 C94.1512,10.1087 93.6772,7.7587 91.9962,6.7887" id="Fill-7" fill="#FED329"></path>
            <path d="M89.5603,70.3432 C88.4613,68.4382 86.1873,67.6752 84.5073,68.6452 C82.8283,69.6132 82.3523,71.9652 83.4533,73.8682 L86.9453,79.9192 C88.0443,81.8222 90.3173,82.5872 91.9963,81.6172 C93.6763,80.6472 94.1513,78.2952 93.0523,76.3922 L89.5603,70.3432 Z" id="Fill-9" fill="#FED329"></path>
            <path d="M106.1116,60.7482 L100.0626,57.2582 C98.1596,56.1572 95.8076,56.6342 94.8376,58.3122 C93.8676,59.9932 94.6326,62.2662 96.5356,63.3652 L102.5846,66.8592 C104.4896,67.9582 106.8396,67.4842 107.8096,65.8032 C108.7796,64.1212 108.0146,61.8472 106.1116,60.7482" id="Fill-11" fill="#FED329"></path>
            <path d="M100.063,31.1472 L106.112,27.6532 C108.017,26.5542 108.78,24.2812 107.81,22.6002 C106.84,20.9202 104.49,20.4452 102.585,21.5442 L96.536,25.0382 C94.633,26.1372 93.868,28.4112 94.838,30.0912 C95.808,31.7722 98.16,32.2462 100.063,31.1472" id="Fill-13" fill="#FED329"></path>
            <g id="Group-17" transform="translate(66.000000, 0.362000)">
                <mask id="mask-6" fill="white">
                    <use xlink:href="#path-5"></use>
                </mask>
                <g id="Clip-16"></g>
                <path d="M4.3976,15.6158 C6.3356,15.6158 7.9226,13.8178 7.9226,11.6188 L7.9226,4.6348 C7.9226,2.4368 6.3356,0.6378 4.3976,0.6378 C2.4576,0.6378 0.8706,2.4368 0.8706,4.6348 L0.8706,11.6188 C0.8706,13.8178 2.4576,15.6158 4.3976,15.6158" id="Fill-15" fill="#FED329" mask="url(#mask-6)"></path>
            </g>
            <path d="M35.3934,116.362 L57.1404,89.88 C57.3514,89.624 57.3684,89.292 57.1854,89.021 C57.0014,88.75 56.6404,88.572 56.2684,88.598 L43.4464,88.933 L51.7614,73.268 C51.8964,73.014 51.8664,72.726 51.6834,72.493 C51.5014,72.263 51.1894,72.121 50.8514,72.115 L36.7924,71.918 C36.3774,71.947 35.9614,72.138 35.8194,72.478 L25.1344,98.128 C25.0294,98.38 25.0804,98.659 25.2714,98.876 C25.4604,99.091 25.7674,99.217 26.0914,99.217 L26.0994,99.217 L38.7954,99.143 L33.5744,115.696" id="Fill-18" fill="#D3D3D3"></path>
            <path d="M25.8496,72.0158 C25.8496,72.0158 19.5696,75.1098 18.5416,75.7558 C17.5116,76.4038 17.1206,76.7018 16.6136,77.4478 C15.0246,79.7858 15.6326,82.9698 17.9706,84.5588 C20.3086,86.1478 23.4916,85.5408 25.0816,83.2038 C25.5996,82.4418 25.6856,82.0218 25.9496,80.7328 C26.2136,79.4458 26.6536,72.5588 26.6536,72.5588 C26.7006,72.0098 26.3386,71.7658 25.8496,72.0158" id="Fill-20" fill="#D3D3D3"></path>
            <path d="M71.5177,70.1181 C71.5177,70.1181 63.4497,74.0931 62.1287,74.9231 C60.8057,75.7561 60.3027,76.1391 59.6527,77.0971 C57.6107,80.1011 58.3917,84.1911 61.3957,86.2321 C64.3997,88.2741 68.4887,87.4941 70.5307,84.4911 C71.1957,83.5131 71.3067,82.9731 71.6457,81.3171 C71.9847,79.6641 72.5497,70.8151 72.5497,70.8151 C72.6107,70.1101 72.1457,69.7961 71.5177,70.1181" id="Fill-22" fill="#D3D3D3"></path>
            <path d="M64.7271,94.6442 C64.7271,94.6442 58.4471,97.7382 57.4191,98.3842 C56.3891,99.0322 55.9981,99.3302 55.4911,100.0762 C53.9021,102.4142 54.5101,105.5982 56.8481,107.1872 C59.1861,108.7762 62.3691,108.1692 63.9591,105.8322 C64.4771,105.0702 64.5631,104.6502 64.8271,103.3612 C65.0911,102.0742 65.5311,95.1872 65.5311,95.1872 C65.5781,94.6382 65.2161,94.3942 64.7271,94.6442" id="Fill-24" fill="#D3D3D3"></path>
        </g>
    </g>
</svg>