<?xml version="1.0" encoding="UTF-8"?>
<svg width="74px" height="78px" viewBox="0 0 74 78" version="1.1" xmlns="http://www.w3.org/2000/svg" xmlns:xlink="http://www.w3.org/1999/xlink">
    <!-- Generator: Sketch 56.3 (81716) - https://sketch.com -->
    <title>Artboard</title>
    <desc>Created with Sketch.</desc>
    <g id="Artboard" stroke="none" stroke-width="1" fill="none" fill-rule="evenodd">
        <g id="97" transform="translate(7.000000, 7.000000)" fill="#F8D352" fill-rule="nonzero">
            <path d="M55.8282263,43.1340206 C46.8583694,43.1340206 38.5349888,38.185567 34.0904651,30.3505155 C29.6459414,22.5154639 29.6459414,12.7010309 34.0904651,4.78350515 C34.6561317,3.79381443 34.5753222,2.55670103 34.0096556,1.56701031 C33.4439889,0.577319588 32.3934651,0 31.2621319,0 C25.7670844,0 20.3528465,1.48453608 15.6658943,4.28865979 C0.716132839,13.1134021 -4.45567652,32.742268 4.19094225,48 C9.76679921,57.8969072 20.1912274,64 31.4237509,64 C36.9187983,64 42.3330363,62.5154639 47.100798,59.7113402 C51.8685598,56.9072165 55.8282263,52.8659794 58.57575,47.9175258 C59.1414167,46.9278351 59.1414167,45.6907216 58.57575,44.7010309 C58.0100834,43.7938144 56.9595596,43.1340206 55.8282263,43.1340206 Z" id="Path"></path>
        </g>
    </g>
</svg>