<svg width="140" height="110" xmlns="http://www.w3.org/2000/svg"><g fill="none" fill-rule="evenodd"><path d="M75 48.8c-1.8 0-3.6.2-5.3.7C66.5 40.4 57.9 34 47.8 34c-12.4 0-22.5 9.7-23.2 21.9-.8-.1-1.5-.2-2.3-.2-9.6 0-17.5 7.8-17.5 17.5 0 9.6 7.8 17.5 17.5 17.5H75c11.6 0 21-9.4 21-21 0-11.5-9.4-20.9-21-20.9z" stroke="#DFDFDF" stroke-width="8.76"/><path d="M139.1 76.2c0 2.4-1.9 4.3-4.3 4.3H46.7c-2.4 0-4.3-1.9-4.3-4.3s1.9-4.3 4.3-4.3h88.1c2.4-.1 4.3 1.9 4.3 4.3zM115.6 90.8c0 2.4-1.9 4.3-4.3 4.3H53.2c-2.4 0-4.3-1.9-4.3-4.3s1.9-4.3 4.3-4.3h58.1c2.4-.1 4.3 1.9 4.3 4.3zM104.1 105.4c0 2.4-1.9 4.3-4.3 4.3H49.5c-2.4 0-4.3-1.9-4.3-4.3s1.9-4.3 4.3-4.3h50.3c2.4-.1 4.3 1.9 4.3 4.3zM124.9 61.6c0 2.4-1.9 4.3-4.3 4.3H75.2c-2.4 0-4.3-1.9-4.3-4.3s1.9-4.3 4.3-4.3h45.4c2.3-.1 4.3 1.9 4.3 4.3z" fill="#DFDFDF" fill-rule="nonzero"/><path d="M120.504 39.383c-.5-.879-1.502-1.358-2.503-1.358-8.258 0-15.848-4.234-19.935-11.024a21.354 21.354 0 0 1 0-22.047c.5-.879.5-1.917-.084-2.796C97.482 1.279 96.481.8 95.48.8c-5.005 0-10.01 1.278-14.347 3.675-8.342 4.633-13.346 12.7-14.264 21.248 4.755 2.716 8.425 5.991 10.26 11.104 1.752-.48 3.42-.48 5.255-.32 11.427.719 21.02 8.867 22.772 18.293 2.002-.64 2.92-1.438 4.754-2.396 4.338-2.397 8.008-5.912 10.51-10.145.584-.959.584-2.077.084-2.876z" fill="#F8D352" fill-rule="nonzero"/></g></svg>