<svg width="131" height="96" xmlns="http://www.w3.org/2000/svg"><g fill-rule="nonzero" fill="none"><path d="M87.4 43.8c-2.3 0-4.5.3-6.6.9-4-11.2-14.7-19.3-27.3-19.3-15.4 0-28 12.1-28.9 27.3-.9-.1-1.9-.2-2.9-.2C9.7 52.5 0 62.2 0 74.2s9.7 21.7 21.7 21.7h65.7c14.4 0 26.1-11.7 26.1-26.1 0-14.3-11.7-26-26.1-26z" fill="#DFDFDF"/><path d="M130.504 39.383c-.5-.879-1.502-1.358-2.503-1.358-8.258 0-15.848-4.234-19.935-11.024a21.354 21.354 0 0 1 0-22.047c.5-.879.5-1.917-.084-2.796-.5-.879-1.501-1.358-2.502-1.358-5.005 0-10.01 1.278-14.347 3.675-8.342 4.633-13.346 12.7-14.264 21.248 4.755 2.716 8.425 5.991 10.26 11.104 1.752-.48 3.42-.48 5.255-.32 11.427.719 21.02 8.867 22.772 18.293 2.002-.64 2.92-1.438 4.754-2.396 4.338-2.397 8.008-5.912 10.51-10.145.584-.959.584-2.077.084-2.876z" fill="#F8D352"/></g></svg>